<svg xmlns="http://www.w3.org/2000/svg" version="1.1" xmlns:xlink="http://www.w3.org/1999/xlink" xmlns:svgjs="http://svgjs.com/svgjs" width="1280" height="1280"><svg version="1.1" viewBox="0 0 1576 1600" width="1280" height="1280" xmlns="http://www.w3.org/2000/svg">
<path transform="translate(0)" d="m0 0h1576v1600h-1576v-1600z" fill="#F9FCFE"></path>
<path transform="translate(1123 18.8)" d="m0 0c1.34-0.0184 1.34-0.0184 2.7-0.0371 5.91-0.0129 11.2 0.754 16.9 2.22 1.32 0.291 2.64 0.577 3.96 0.859 18.8 4.34 34.9 14 47 29.1 0.866 0.846 1.73 1.69 2.62 2.56 2.32 2.39 3.7 4.58 5.38 7.44 0.532 0.781 1.06 1.56 1.61 2.37 6.77 9.99 11.6 20.5 12.4 32.6 0.66 0.99 1.32 1.98 2 3 0 1.89-0.00226 3.78-0.125 5.67 0.176 3.27 1.16 6.21 2.12 9.33 0.834-0.519 1.67-1.04 2.53-1.57 6.4-3.97 12.8-7.92 19.5-11.4 0.848-0.449 0.848-0.449 1.71-0.906 16.7-8.78 35.2-16.4 54.3-17.1 1.21-0.0599 1.21-0.0599 2.45-0.121 15.6-0.396 32.1 1.71 45.5 10.1 1.2 0.557 2.39 1.11 3.62 1.69 8.21 4.05 15.7 10.1 22.4 16.3v2c0.578 0.206 1.15 0.412 1.75 0.625 3.1 1.9 4.37 4.29 6.25 7.38 0.474 0.763 0.949 1.53 1.44 2.31 2.25 3.87 4.44 7.75 6.56 11.7 0.512 0.933 1.02 1.87 1.55 2.83 3.26 6.19 5.44 12 6.91 18.9 0.319 2.25 0.319 2.25 1.54 3.3 1.25 6.36 1.18 12.7 1.19 19.2 0.0122 1.06 0.0245 2.12 0.0371 3.21 0.0333 18.2 0.0333 18.2-4.22 24.6-0.372 1.78-0.679 3.57-0.938 5.38-0.714 4.26-1.68 7-4.06 10.6-0.488 1.39-0.943 2.78-1.38 4.19-2.39 7.49-6.1 14.3-10.4 20.8-1.57 2.58-2.88 5.27-4.21 7.98 0.572 0.0292 1.14 0.0583 1.73 0.0884 16.9 0.955 32.8 3.54 47.3 12.9 0.878 0.535 1.76 1.07 2.66 1.62 16.7 10.3 16.7 10.3 21.3 17.4v2c0.99 0.33 1.98 0.66 3 1 1.44 2.13 1.44 2.13 3 5 0.356 0.599 0.712 1.2 1.08 1.82 2.92 4.93 2.92 4.93 2.92 7.18h2c4.67 8.94 7.72 17.1 9.54 27 0.271 2.02 0.271 2.02 1.46 3.04 1.06 5.62 1.16 11.1 1.12 16.8-0.00338 0.883-0.00677 1.77-0.0103 2.68-0.131 16.5-0.131 16.5-3.11 19.5-0.387 2.05-0.687 4.12-0.938 6.19-0.722 5.11-1.81 9.14-4.06 13.8-0.614 1.75-1.22 3.5-1.81 5.25-2.14 5.95-5.05 11.3-8.19 16.8-0.876 1.6-1.75 3.21-2.62 4.81-3.59 6.58-8.06 12.6-12.4 18.8-0.521 0.742-1.04 1.48-1.58 2.25-5.83 8.27-5.83 8.27-8.42 11.2h-2c-0.247 0.552-0.495 1.1-0.75 1.67-1.49 2.78-3.29 5.11-5.25 7.58-0.701 0.892-1.4 1.78-2.12 2.7-0.619 0.675-1.24 1.35-1.88 2.05h-2c-0.227 0.557-0.454 1.11-0.688 1.69-1.32 2.33-2.84 3.93-4.77 5.77-1.89 1.89-3.61 3.9-5.36 5.92-3.17 3.61-6.52 6.72-10.2 9.81-2.93 2.65-5.42 5.64-7.99 8.62-1.93 2.11-3.94 3.92-6.13 5.75-3.98 3.35-6.94 7.16-9.88 11.4 1.2 0.00387 1.2 0.00387 2.43 0.00781 13.5 0.458 27.3 4.37 38.6 12 0.541 0.367 1.08 0.733 1.64 1.11 12.6 8.62 12.6 8.62 17.4 13.9v2c0.579 0.235 1.16 0.469 1.75 0.711 10.8 6.18 16.9 21.9 20.5 33.1 0.702 2.04 1.5 3.98 2.38 5.95 6 14.2 4.99 36.4 1.38 51.2-0.66 0.66-1.32 1.32-2 2-0.501 2.29-0.501 2.29-0.812 4.94-1.03 6.26-3.41 11.4-6.19 17.1-0.552 1.27-1.1 2.54-1.62 3.81-1.35 3.13-2.83 6.15-4.38 9.19-0.275 0.594-0.549 1.19-0.832 1.8-2.33 4.94-5.2 9.27-8.38 13.7-1.64 2.3-3.19 4.63-4.72 7-2.83 4.28-5.99 8.22-9.23 12.2-1.53 1.93-2.89 3.85-4.2 5.93-0.536 0.784-1.07 1.57-1.62 2.38h-2c-0.262 0.579-0.523 1.16-0.793 1.75-3.16 5.88-8.53 10.6-13.2 15.2-1.11 1.29-2.21 2.58-3.31 3.88-3.05 3.54-6.36 6.53-9.92 9.54-1.92 1.63-1.92 1.63-3.77 4.08-2.41 3.02-5.19 5.31-8.12 7.81-2.01 1.72-2.01 1.72-3.88 4.19-1.81 2.26-3.55 3.89-5.75 5.75-3.02 2.57-5.66 5.25-8.25 8.25-3.1 3.59-6.38 6.63-10 9.69-2.18 1.98-4.07 4.09-6 6.31-2.39 2.76-4.77 5.27-7.56 7.62-6.3 5.32-12 11.3-17.8 17.2-2.22 2.24-4.44 4.46-6.67 6.69-0.825 0.825-1.65 1.65-2.5 2.5-7.5 7.5-7.5 7.5-9.72 9.71-2.43 2.43-4.84 4.88-7.25 7.33-1.68 1.7-3.35 3.39-5.03 5.09-0.842 0.859-1.68 1.72-2.55 2.6-0.819 0.825-1.64 1.65-2.48 2.5-0.738 0.748-1.48 1.5-2.24 2.27-5.64 5.07-10.8 6.18-18.2 6.01-8.25-1.54-13.2-5.57-18-12.3-2.91-4.82-2.41-10.3-2.02-15.7 2.58-9.18 9.9-16.3 17.1-22.3 2.01-1.78 3.7-3.66 5.43-5.71 3.45-4.07 7.19-7.83 11.5-11h2c0.33-0.99 0.66-1.98 1-3h2c0.227-0.557 0.454-1.11 0.688-1.69 1.68-2.97 3.87-4.93 6.31-7.31 0.901-0.901 1.8-1.8 2.73-2.73l54.3-54.3c0.906-0.912 1.81-1.82 2.75-2.76 1.82-1.81 3.64-3.44 5.63-5.05 3.98-3.37 7.28-7.2 10.6-11.2 3.53-4.18 7.13-8.13 11-12 1.55-1.77 3.07-3.57 4.59-5.37 1.71-1.97 3.56-3.78 5.41-5.63 7.19-8.73 13.8-18 19-28 0.654-1.17 1.31-2.33 1.97-3.5 3.68-6.58 6.82-12.7 8.46-20.1 0.622-2.58 1.57-4.91 2.57-7.37 2.05-10.1 1.62-21.1-1-31-0.66-0.66-1.32-1.32-2-2l-1.44-3.38c-1.3-3.02-2.58-5.07-4.56-7.62v-2h-2v-2h-2c-2.22-2.11-4.34-4.28-6.42-6.54-1.72-1.6-3.35-2.55-5.46-3.59-0.657-0.333-1.31-0.665-1.99-1.01-6.81-2.77-14.3-2.09-21.5-2.12-1.3-0.0206-2.6-0.0412-3.95-0.0625-6.73-0.0275-11.7 0.0904-17.7 3.31-2.54 0.786-5.1 1.48-7.67 2.16-2.55 0.921-4.21 2.18-6.33 3.84-2.33 1.02-4.66 2.01-7 3-15.8 8.85-30.7 20.7-43.5 33.5-2.38 2.38-4.85 4.59-7.38 6.81-3.79 3.38-7.14 6.9-10.4 10.8-2.42 2.69-5.12 4.98-7.87 7.32-2.41 2.08-4.63 4.31-6.85 6.59-5 5-5 5-6.62 6.59-3.86 3.8-7.44 7.74-10.9 11.9-0.489 0.496-0.977 0.993-1.48 1.5h-2c-0.33 0.99-0.66 1.98-1 3-1.6 1.54-1.6 1.54-3.62 3.19-2.91 2.46-5.48 4.96-7.94 7.88-2.71 3.2-5.58 5.9-8.81 8.57-3.2 2.69-6.02 5.61-8.63 8.87-5.64 7.05-5.64 7.05-10 8.5-0.33 0.99-0.66 1.98-1 3-0.825 0.784-1.65 1.57-2.5 2.38-2.74 2.87-3.26 3.76-3.5 7.62 1.11 3.21 1.11 3.21 2.81 6.44 2.06 4.15 3.8 8.14 5.19 12.6 0.33 0.955 0.66 1.91 1 2.89 1.82 5.32 3.46 10.5 4.51 16.1 0.447 2.11 0.447 2.11 1.48 4.27 1.33 3.63 1.73 7.26 2.14 11.1 0.0864 0.721 0.173 1.44 0.262 2.19 0.41 3.63 0.636 7.14 0.543 10.8-0.209 3.51-0.209 3.51 1.05 5.58 1.3 2.72 1.34 4.88 1.44 7.89 0.0387 1.12 0.0773 2.24 0.117 3.39 0.0309 1.17 0.0619 2.33 0.0938 3.53 0.058 1.72 0.058 1.72 0.117 3.47 0.105 3.28 0.184 6.56 0.258 9.84 0.0459 1.32 0.0459 1.32 0.0928 2.66 0.137 5.79 0.137 5.79-1.08 8.71-1.17 3.06-1.28 5.45-1.32 8.73-0.0348 1.78-0.0348 1.78-0.0703 3.59-0.0193 1.26-0.0387 2.52-0.0586 3.81-0.28 11.7-1.26 23-3.22 34.5-0.304 1.82-0.559 3.65-0.809 5.48-0.683 4.58-1.6 9.09-2.53 13.6-1.08 5.3-2.14 10.6-3 15.9-0.302 1.73-0.614 3.46-0.938 5.19-0.153 0.839-0.307 1.68-0.465 2.54-0.598 2.27-0.598 2.27-2.6 5.27-0.454 2.28-0.454 2.28-0.625 4.69-0.0748 0.808-0.15 1.62-0.227 2.45-0.049 0.615-0.098 1.23-0.148 1.86 0.545 0.147 1.09 0.294 1.65 0.445 5.37 1.6 9.57 3.77 14.1 7.05 2.64 1.77 5.39 3.1 8.24 4.5 15 8.66 29.6 18.4 43.4 29 2.63 2.01 5.3 3.95 7.98 5.88 4.4 3.19 8.72 6.47 13 9.81 0.583 0.452 1.17 0.903 1.77 1.37 3.53 2.78 6.71 5.73 9.86 8.94 1.66 1.34 3.32 2.68 5 4l3 3c0.66 0.33 1.32 0.66 2 1v2h2v2h2c3.96 3.61 7.42 7.69 10.9 11.7 2.27 2.52 4.66 4.89 7.06 7.28 7.01 7.29 13.8 14.7 20.1 22.6 1.61 2.01 3.27 3.95 4.98 5.88 5.09 5.9 10.3 12.1 12.9 19.5h2c1.72 2.59 3.27 5.24 4.81 7.94 4.31 7.31 8.93 10.8 16.5 14.1 1.45 0.657 2.91 1.31 4.36 1.97 0.722 0.325 1.44 0.649 2.19 0.984 3.42 1.57 6.78 3.27 10.1 4.98 0.725 0.371 1.45 0.741 2.2 1.12 10.2 5.24 20.2 10.7 29.8 16.9 0.749 0.478 1.5 0.957 2.27 1.45 14.7 9.41 28.9 19.2 42.6 30.1 3.08 2.43 6.2 4.78 9.39 7.06 1.75 1.41 1.75 1.41 4.04 3.73 3.54 3.52 7.37 6.62 11.2 9.76 4.36 3.61 4.36 3.61 5.46 6.93 1.32 0.686 2.66 1.35 4 2 4.4 3.25 7.41 6.63 10.5 11.1 1.45 1.98 1.45 1.98 3.67 3.48 0.601 0.456 1.2 0.913 1.82 1.38v2c0.619 0.227 1.24 0.454 1.88 0.688 2.75 1.7 2.99 3.37 4.12 6.31 0.99 0.33 1.98 0.66 3 1 8.3 8.06 15.7 18.4 22 28v2c0.99 0.33 1.98 0.66 3 1 1.19 3.06 1.19 3.06 2 6h2c0.326 0.592 0.652 1.18 0.988 1.79 1.33 2.41 2.67 4.81 4.01 7.21l1.56 2.81c1.38 2.28 1.38 2.28 3.5 4.12 4.38 4.67 4.28 10.6 4.25 16.6l0.0488 2.25c0.00407 4.57-0.461 7.46-3.36 11.2-2.88 2.62-2.88 2.62-6 5-0.722 0.578-1.44 1.16-2.19 1.75-5.31 2.36-11.2 2.92-16.9 1.46-11.9-4.87-19.1-16.4-24.6-27.5-1.42-2.82-3.09-4.5-5.35-6.68v-2h-2c-1.41-1.8-1.41-1.8-3.06-4.31-5.3-7.79-11.4-15-17.5-22.1-0.998-1.16-1.98-2.32-2.96-3.5-2.64-3.15-5.11-5.69-8.44-8.12v-2c-0.959-0.402-0.959-0.402-1.94-0.812-2.06-1.19-2.06-1.19-3.06-4.19h-2v-2l-1.69-0.625c-3.16-1.88-4.98-4.56-7.31-7.38-0.99-0.33-1.98-0.66-3-1-1.69-1.65-3.35-3.32-5-5-2.89-2.38-5.83-4.7-8.77-7.01-0.736-0.656-1.47-1.31-2.23-1.99v-2c-0.687-0.223-1.37-0.446-2.08-0.676-3.65-1.66-6.53-3.99-9.61-6.51-9.8-7.86-20.1-14.9-30.9-21.3-2.38-1.44-4.7-2.95-7.02-4.48-5.38-3.43-10.9-6.55-16.5-9.62-0.826-0.455-1.65-0.91-2.5-1.38-10.6-5.98-10.6-5.98-21.9-10.5-6.78-2.12-13.7-5.42-19.5-9.5v-2c-0.99-0.33-1.98-0.66-3-1-1.58-2.12-1.58-2.12-3.25-4.88-0.608-0.989-1.22-1.98-1.84-3-0.629-1.03-1.26-2.07-1.91-3.13-1.25-1.98-2.49-3.96-3.75-5.94-0.552-0.875-1.1-1.75-1.67-2.65-1.54-2.42-1.54-2.42-3.28-4.6-1.3-1.81-1.3-1.81-1.3-3.81h-2c-1.62-2.12-3.13-4.24-4.62-6.44-3.68-5.31-7.52-10.2-12-14.9-1.4-1.67-1.4-1.67-1.4-3.67h-2c-1.35-1.99-2.68-3.99-4-6-0.742-0.742-1.49-1.48-2.25-2.25-0.577-0.578-1.15-1.16-1.75-1.75v-2c-0.619-0.248-1.24-0.495-1.88-0.75-2.53-1.49-2.84-2.69-4.12-5.25-1.32-0.685-2.66-1.35-4-2-1.71-1.62-3.37-3.29-5-5-9.98-10.1-20.8-20.4-32.4-28.7-0.804-0.65-0.804-0.65-1.62-1.31v-2c-0.701-0.248-1.4-0.495-2.12-0.75-3.8-1.65-7.33-3.68-10.3-6.65-7.59-7.48-17.6-12.9-26.6-18.6-0.565-0.356-1.13-0.713-1.71-1.08-7.29-4.58-14.7-8.89-22.3-12.9v-2c-0.804-0.0619-1.61-0.124-2.44-0.188-3.98-0.909-6.81-2.49-10.3-4.54-3-1.7-6.07-2.99-9.26-4.28v-2c-0.825-0.0412-1.65-0.0825-2.5-0.125-4.65-1.16-8.04-3.57-11.5-6.88v-2h-2c-4.8-12.7-1.74-24.5 1.95-37.3 3.49-12.3 6-24.9 8.3-37.5 0.163-0.879 0.326-1.76 0.494-2.66 0.75-4.2 1.36-8.35 1.74-12.6 0.301-3.33 0.795-6.52 1.51-9.79 1.27-6.04 1.72-12.1 2.13-18.3 0.0835-1.22 0.167-2.44 0.253-3.7 2.45-38.8 0.342-79.2-20.4-113-0.576-0.96-1.15-1.92-1.75-2.91-3.12-5.05-6.46-9.8-10.2-14.4-3.3-4.2-6.47-8.51-9.65-12.8-2.95-3.96-6.02-7.73-9.33-11.4-1.1-1.45-1.1-1.45-1.1-3.45h-2c-1.51-1.68-1.51-1.68-3.12-3.88-0.539-0.719-1.08-1.44-1.63-2.18-1.24-1.95-1.24-1.95-1.24-3.95h-2c-0.124-0.928-0.124-0.928-0.25-1.88-0.247-0.701-0.495-1.4-0.75-2.12-0.615-0.294-1.23-0.588-1.86-0.891-2.53-1.31-3.48-2.64-5.07-4.98-2.37-3.32-4.81-5.64-8.06-8.12v-2c-0.557-0.227-1.11-0.454-1.69-0.688-2.97-1.69-4.96-3.84-7.31-6.31-0.928-0.887-1.86-1.77-2.81-2.69-2.19-2.31-2.19-2.31-2.19-4.31-0.557-0.227-1.11-0.454-1.69-0.688-2.96-1.68-4.94-3.88-7.31-6.31-1.1-0.906-2.2-1.8-3.31-2.69-0.887-0.763-1.77-1.53-2.69-2.31v-2c-1.65-0.66-3.3-1.32-5-2v-2c-0.536-0.248-1.07-0.495-1.62-0.75-4.29-2.26-7.96-4.83-11.4-8.25-2.9-2.02-5.8-3.89-8.88-5.62-0.701-0.454-1.4-0.908-2.12-1.38v-2c-0.586-0.126-1.17-0.252-1.77-0.382-2.19-0.607-3.86-1.39-5.83-2.5-0.673-0.362-1.35-0.724-2.04-1.1-1.39-0.758-2.78-1.53-4.16-2.31-5.24-2.78-8.39-3.03-14.2-1.71-1.7 0.947-3.37 1.94-5 3-0.887 0.144-1.77 0.289-2.69 0.438-0.763 0.186-1.53 0.371-2.31 0.562-0.289 0.578-0.578 1.16-0.875 1.75-1.44 2.89-3.55 3.87-6.18 5.61-3.19 2.69-5.23 6.13-7.46 9.62-0.489 0.664-0.977 1.33-1.48 2.01h-2c-0.268 1.16-0.536 2.31-0.812 3.5-1.07 4.32-2.56 8.36-4.19 12.5h2c2.86 2.62 5.34 5.4 7.81 8.38 2.84 3.38 6.02 6.15 9.38 9 2.23 2 3.95 4.28 5.81 6.62 1.11 0.977 2.24 1.93 3.38 2.88 2.45 2.04 4.54 4.1 6.56 6.56 2.7 3.26 5.67 5.97 8.9 8.7 1.45 1.25 2.87 2.53 4.27 3.84 8.96 8.43 19.1 15.5 29.4 22.3 2.18 1.46 3.71 2.87 5.55 4.71 1.99 1.35 3.99 2.68 6 4 1.17 0.777 2.34 1.55 3.52 2.33 0.607 0.403 1.21 0.805 1.84 1.22 5.91 3.93 11.8 7.9 17.6 12 3.75 2.64 7.51 5.14 11.5 7.39 1.19 0.684 2.38 1.37 3.56 2.06 0.59 0.334 1.18 0.668 1.79 1.01 6.22 3.91 9.91 10.1 12.2 17 0.549 7.53 0.0484 12.6-4.81 18.6-4.32 4.8-7.52 7.94-14.2 8.44-0.794 0.098-1.59 0.196-2.41 0.297-8.48 0.634-13.7-2.69-20.6-7.3-1.66-1-3.33-2-5-3-4.98-3.19-9.8-6.56-14.6-10.1-3.72-2.72-7.46-5.26-11.4-7.65-3.3-2.08-6.47-4.37-9.64-6.64-2.41-1.71-2.41-1.71-5.2-3.23-0.726-0.467-1.45-0.933-2.2-1.41v-2c-0.701-0.248-1.4-0.495-2.12-0.75-7.99-3.47-7.99-3.47-9.88-7.25-2.02-1.13-2.02-1.13-4-2v-2c-0.804-0.268-1.61-0.536-2.44-0.812-1.27-0.588-1.27-0.588-2.56-1.19-0.33-0.99-0.66-1.98-1-3-1.32-0.365-2.66-0.694-4-1-2.25-1.44-2.25-1.44-4-3v-2c-0.583-0.268-1.17-0.536-1.77-0.812-2.26-1.2-4.04-2.53-5.98-4.19-0.614-0.516-1.23-1.03-1.86-1.56-1.39-1.44-1.39-1.44-1.39-3.44-0.639-0.268-1.28-0.536-1.94-0.812-2.06-1.19-2.06-1.19-3.06-4.19-2-1.21-2-1.21-4-2v-2h-2v-2h-2v-2c-1.32-0.66-2.64-1.32-4-2v-2c-1.32-0.66-2.64-1.32-4-2v-2c-0.557-0.227-1.11-0.454-1.69-0.688-3.63-2.06-6.54-4.72-8.38-8.5-1.22-2.35-2.61-2.68-4.94-3.81-0.33-0.99-0.66-1.98-1-3-1.32-0.685-2.66-1.35-4-2-2.25-2-2.25-2-4-4v-2h-2c-1.71-1.62-3.37-3.3-5-5-0.928-0.887-1.86-1.77-2.81-2.69-2.19-2.31-2.19-2.31-2.19-4.31h-2c-1.55-1.57-1.55-1.57-3.31-3.69-3.72-4.37-7.52-8.4-12-12-0.887-0.763-1.77-1.53-2.69-2.31v-2h-2c-4.35-3.96-8.13-8.48-12-12.9-1.81-2.16-1.81-2.16-3.99-3.11v-2h-2v-2h-2c-1.71-1.62-3.37-3.29-5-5l-1.81-1.69c-1.19-1.31-1.19-1.31-1.19-3.31h-2c-1.23-1.29-1.23-1.29-2.62-3.06-2.88-3.49-6.04-6.37-9.48-9.3-6.57-5.65-6.57-5.65-7.9-9.63-0.66-0.33-1.32-0.66-2-1-2-1-2-1-3-4-2.39-1.11-2.39-1.11-5-2l-3-2c-7.2-1.21-14.8-2.34-21.2 1.68-0.584 0.434-1.17 0.869-1.77 1.32l-2.11 1.54c-1.36 1.01-2.7 2.04-4.03 3.1-1.86 1.37-1.86 1.37-4.03 2.36-2.18 0.932-2.18 0.932-2.83 4.01-1.65 1.69-3.31 3.35-5 5-0.66 0.99-1.32 1.98-2 3h-2c-0.289 0.949-0.578 1.9-0.875 2.88-1.12 3.12-1.12 3.12-3.12 5.12-2.33 6.21-3.56 13.4-0.875 19.6 0.619 0.784 1.24 1.57 1.88 2.38 0.402 0.592 0.804 1.18 1.22 1.79 3.44 4.94 7.4 8.71 12 12.5l1.76 1.66v2l1.75 0.688c2.85 1.66 4.25 3.7 6.25 6.31 2.58 2.71 4.88 4.92 8 7v2h2v2h2c0.557 0.701 1.11 1.4 1.69 2.12 1.85 2.3 3.39 3.86 5.62 5.69 3.47 2.87 6.33 6.09 9.21 9.55 1.4 1.75 1.4 1.75 3.48 2.64v2h2v2h2c0.557 0.701 1.11 1.4 1.69 2.12 2.32 2.88 4.74 5.03 7.56 7.39 2.41 2.05 4.61 4.15 6.75 6.48v2h2v2h2c1.55 1.61 1.55 1.61 3.31 3.75 2.69 3.17 5.38 5.73 8.69 8.25 3.54 3.21 5.29 5.59 7 10 0.99 0.33 1.98 0.66 3 1 2.9 5.6 4.85 11.7 4 18-1.31 3.63-1.31 3.63-3 7-0.65 1.33-0.65 1.33-1.31 2.69-3.69 5.05-8.7 7.11-14.7 8.31-9.59 0.869-14.9-2.01-22.5-7.6-0.508-0.463-1.02-0.926-1.54-1.4v-2c-0.639-0.268-1.28-0.536-1.94-0.812-2.06-1.19-2.06-1.19-3.06-4.19-0.66-0.33-1.32-0.66-2-1-2-1-2-1-3-4l-1.75-0.875c-3.69-1.84-6.51-4.59-8.31-8.31-1.21-2.34-2.54-2.85-4.94-3.81v-2c-1.32-0.66-2.64-1.32-4-2v-2h-2c-1.34-1.66-2.68-3.33-4-5-0.743-0.557-1.48-1.11-2.25-1.69-0.866-0.65-0.866-0.65-1.75-1.31v-2c-1.32-0.66-2.64-1.32-4-2v-2h-2v-2h-2v-2h-2v-2h-2v-2h-2v-2h-2c-1.62-1.38-1.62-1.38-3-3v-2c-0.598-0.268-1.2-0.536-1.81-0.812-2.19-1.19-3.6-2.28-5.19-4.19v-2h-2v-2h-2v-2c-1.32-0.66-2.64-1.32-4-2v-2c-0.639-0.268-1.28-0.536-1.94-0.812-2.06-1.19-2.06-1.19-3.06-4.19h-2c-1.62-1.38-1.62-1.38-3-3v-2h-2c-4.77-4.3-4.77-4.3-6-8-0.639-0.309-1.28-0.619-1.94-0.938-2.56-1.32-2.8-2.54-4.06-5.06-0.66-0.33-1.32-0.66-2-1-2.49-1.25-2.99-2.47-4-5h-2c-1.69-1.64-3.35-3.31-5-5-1.1-0.907-2.2-1.8-3.31-2.69-0.887-0.763-1.77-1.53-2.69-2.31v-2c-3.02-0.0815-6.04-0.141-9.06-0.188-0.848-0.0251-1.7-0.0503-2.57-0.0762-9.32-0.108-16.1 3.22-22.9 9.7-0.804 0.846-1.61 1.69-2.44 2.56-4.61 4.83-4.61 4.83-7.19 5.94-2.78 1.63-2.9 4.07-3.81 7.06-0.995 1.01-1.99 2.01-3 3-3.06 6.46-4.48 13-2.39 20.1 0.709 1.69 1.55 3.32 2.39 4.95 0.309 0.763 0.619 1.53 0.938 2.31 0.939 1.83 0.939 1.83 2.89 2.53 2.65 1.42 4.06 3.11 5.98 5.41 2.45 2.84 4.85 5.44 7.75 7.81 2.55 2.09 4.68 4.29 6.81 6.81 3.22 3.81 6.8 6.99 10.6 10.2 1.75 1.59 3.22 3.15 4.69 5 2.38 2.89 4.89 5.07 7.76 7.45 1.62 1.43 1.62 1.43 3.55 3.87 1.88 2.34 3.73 4.06 6 6 3.43 2.93 6.18 6.09 9.06 9.56 1.73 1.58 3.52 3.08 5.32 4.58 3.89 3.29 7.22 7.03 10.6 10.9 2.95 3.35 5.98 6.23 9.42 9.05 2.5 2.22 4.58 4.75 6.74 7.29 4.34 4.92 8.93 10 14.3 13.9 0.561 0.44 1.12 0.879 1.7 1.33v2h2v2h2c1.47 2.01 1.47 2.01 3.06 4.69 0.527 0.87 1.05 1.74 1.6 2.64 2.42 4.84 3.27 10.3 2.34 15.7-2.94 7.74-6.6 12.4-14 16-0.33 0.33-0.66 0.66-1 1-9.47 1.09-15.9 0.644-23.8-5.13-2.59-2.17-4.98-4.36-7.23-6.87-0.928-0.887-1.86-1.77-2.81-2.69-2.19-2.31-2.19-2.31-2.19-4.31-1.32-0.66-2.64-1.32-4-2v-2h-2v-2h-2v-2c-0.99-0.33-1.98-0.66-3-1v-2c-0.639-0.268-1.28-0.536-1.94-0.812-2.06-1.19-2.06-1.19-3.06-4.19l-1.75-0.875c-4.51-2.25-7.52-6.42-10.8-10.2-2.62-3.03-5.31-5.5-8.5-7.94-2.6-2.48-4.95-4.94-7.19-7.75-1.62-2.32-1.62-2.32-3.81-3.25v-2l-1.69-0.688c-3.63-2.06-6.54-4.72-8.38-8.5-1.21-2.34-2.54-2.85-4.94-3.81v-2l-1.73-0.703c-2.83-1.62-4.47-3.57-6.58-6.05-2.77-3.17-5.5-6.08-8.75-8.75l-2.94-2.5v-2l-1.69-0.75c-2.31-1.25-2.31-1.25-4.88-3.31-5.36-4.26-11.9-3.22-18.4-2.94-8.73 1.31-15.1 7.79-21 14-0.846 0.825-1.69 1.65-2.56 2.5-6.91 7.09-12.6 15.6-13.8 25.6 0.867 8.95 5.93 15 12.4 20.9 1.67 1.66 3.34 3.33 5 5 1.48 1.48 2.96 2.96 4.44 4.44 58.1 58.1 58.1 58.1 60.5 60.5 1.24 1.24 2.49 2.49 3.73 3.73 1.89 1.88 3.76 3.78 5.62 5.69 2.32 2.26 4.68 4.38 7.12 6.5 3.63 3.19 6.81 6.55 9.93 10.2 4.76 5.7 4.76 5.7 10.7 9.96v2h2c0.33 1.32 0.66 2.64 1 4h2c3.63 6.56 5.36 12.5 4 20-2.5 6.56-6.47 11.4-12.5 14.9-5.72 2.44-11.7 2.93-17.7 1-5.94-2.66-11.6-7-15.8-11.9v-2l-1.77-0.781c-2.41-1.32-4.05-2.77-5.98-4.72-0.614-0.608-1.23-1.22-1.86-1.84-1.39-1.66-1.39-1.66-1.39-3.66-1.32-0.66-2.64-1.32-4-2v-2c-0.639-0.268-1.28-0.536-1.94-0.812-2.06-1.19-2.06-1.19-3.06-4.19h-2v-2h-2v-2c-0.639-0.268-1.28-0.536-1.94-0.812-2.06-1.19-2.06-1.19-3.06-4.19-0.66-0.33-1.32-0.66-2-1-2-1-2-1-3-4-0.639-0.309-1.28-0.619-1.94-0.938-2.56-1.32-2.8-2.54-4.06-5.06-1.33-0.683-2.66-1.35-4-2-0.33-0.99-0.66-1.98-1-3h-2v-2h-2v-2l-1.69-0.688c-3.63-2.06-6.54-4.72-8.38-8.5-0.771-1.95-0.771-1.95-2.64-2.58-3.2-1.71-5.53-4.17-8.05-6.73l-1.54-1.51c-3.71-3.73-3.71-3.73-3.71-5.99-2.46-0.902-3.56-1.2-6-0.109-0.66 0.449-1.32 0.897-2 1.36-0.694 0.463-1.39 0.926-2.1 1.4-1.44 1.03-2.87 2.09-4.27 3.16-1.62 1.19-1.62 1.19-3.62 1.19-0.33 0.99-0.66 1.98-1 3-2.54 2.74-4.89 4.93-8 7-7.4 11.2-8.39 20.8-6 34h2c0.231 0.557 0.461 1.11 0.699 1.69 2.84 6.65 5.86 13.1 11.1 18.2l2.19 2.12v2c0.99 0.33 1.98 0.66 3 1 1.58 1.64 1.58 1.64 3.25 3.69 2.28 2.69 4.52 5.08 7.25 7.31 3.36 2.76 6.07 5.88 8.88 9.19 2 2.23 4.28 3.96 6.62 5.81 1.21 1.47 2.43 2.94 3.62 4.43 1.51 1.71 3.12 3.12 4.88 4.57 3.3 2.73 5.81 5.67 8.5 9 2.56 2.69 5.12 5.1 8 7.44 3.08 2.63 5.45 5.43 8 8.56 1.66 1.68 3.32 3.34 5 5 0.874 0.886 1.75 1.77 2.65 2.68 4.48 4.53 8.96 8.93 13.9 13 2.44 2.19 4.38 4.81 6.48 7.32 1.11 0.979 2.23 1.94 3.38 2.88 2.61 2.16 4.81 4.41 7 7 3.22 3.8 6.79 6.99 10.6 10.2 2.68 2.43 4.81 5.05 7.07 7.88 1.64 1.69 3.31 3.35 5 5 0.536 0.547 1.07 1.09 1.62 1.66 2.86 2.91 5.73 5.69 8.88 8.28 3.22 2.71 5.89 5.71 8.61 8.91 3.44 3.9 7.19 7.5 10.9 11.1 0.866 0.887 1.73 1.77 2.62 2.69 1.87 1.82 3.74 3.47 5.75 5.12 3.38 2.84 6.15 6.02 9 9.38 2 2.23 4.28 3.96 6.62 5.81 0.873 1.03 1.73 2.07 2.56 3.12 2.3 2.72 3.37 3.44 6.44 4.88 0.704 0.735 1.41 1.47 2.13 2.23 3.33 3.22 6.84 5.61 10.7 8.09 1.12 0.715 1.12 0.715 2.26 1.44 9.4 5.94 19.1 11.5 29.5 15.4 2.34 0.887 2.34 0.887 5.29 2.33 5.53 2.39 11.5 3.14 17.4 4.18 2.36 0.426 4.72 0.856 7.09 1.29 1.04 0.185 2.08 0.37 3.15 0.561 2.39 0.525 2.39 0.525 3.39 1.52 7.74 1.21 15.5 1.19 23.3 1.19 2.21 0.00217 4.41 0.0203 6.62 0.0393 13.4 0.0533 26.1-1.4 39.1-4.55 8.43-1.91 16-2.78 23.7 2.02 4.85 4.85 7.95 10.2 10.5 16.6 5.44 13 12.1 25.4 19.5 37.3 1.31 2.51 1.87 4.65 2.28 7.45h2c0.66 1.98 1.32 3.96 2 6h2c0.804 1.42 0.804 1.42 1.62 2.88 0.79 1.38 1.58 2.75 2.38 4.12 0.505 0.877 1.01 1.75 1.53 2.66 0.526 0.897 1.05 1.79 1.59 2.72 0.498 0.853 0.995 1.71 1.51 2.59 1.21 2.17 1.21 2.17 3.37 3.04 0.625 2.56 0.625 2.56 1 5h2c0.247 0.578 0.495 1.16 0.75 1.75 1.16 2.33 1.16 2.33 3.12 4.1 2.12 2.14 3.7 4.28 5.38 6.77 5.01 7.28 10.3 14.3 16.8 20.4 3.64 3.55 6.98 7.25 10.3 11.1 1.71 1.95 1.71 1.95 3.96 3.48 0.884 0.684 0.884 0.684 1.79 1.38v2h2c1.38 1.43 1.38 1.43 3 3.44 5.91 6.96 12.9 12.8 20 18.6 0.799 0.666 1.6 1.33 2.42 2.02 12 9.98 24.8 18.8 38 27.2 10.1 6.52 10.1 6.52 13.6 11.8v3h2c0.28 0.704 0.559 1.41 0.848 2.13 3.05 7.52 6.51 14.7 10.2 22 1 1.99 1.97 3.98 2.94 5.99 3.41 7.04 6.83 13.6 11.7 19.8 1.52 2.38 1.96 4.34 2.35 7.11h2c1.47 2.1 2.81 4.18 4.12 6.38 0.559 0.905 0.559 0.905 1.13 1.83 2.75 4.53 2.75 4.53 2.75 6.8 0.99 0.33 1.98 0.66 3 1 1.21 1.86 1.21 1.86 2.38 4.19 1.78 3.37 3.63 6.22 6.18 9.08 1.96 2.34 3.68 4.81 5.45 7.29 2.14 2.98 4.19 5.81 6.88 8.31 2.28 2.28 2.97 4.16 4.12 7.12 0.99 0.33 1.98 0.66 3 1 1.65 1.88 1.65 1.88 3.48 4.34 4.4 5.65 9.27 10.7 14.3 15.7 1.48 1.47 2.95 2.95 4.42 4.43 6.25 6.26 12.8 12 19.8 17.5 1.25 1.05 2.5 2.11 3.74 3.18 0.529 0.454 1.06 0.908 1.6 1.38 1.05 0.902 2.09 1.81 3.13 2.71 2.39 2.04 4.69 3.83 7.41 5.43 0.699 0.431 1.4 0.861 2.12 1.3v2c0.733 0.267 1.47 0.534 2.22 0.809 2.74 1.17 4.82 2.5 7.21 4.25 3.53 2.54 7.11 4.94 10.8 7.24 18.9 11.8 18.9 11.8 21.8 22.7 1.26 7.73-1.74 14.7-6 21-5.81 5.17-11.9 7.02-19.6 6.66-6.48-1.24-11.8-4.33-17.4-7.66-0.878-0.498-1.76-0.995-2.66-1.51-1.83-1.08-3.6-2.27-5.34-3.49v-2c-0.908-0.248-1.82-0.495-2.75-0.75-3.44-1.32-4.77-2.61-7.25-5.25-1.66-1.01-3.33-2.01-5-3-3.9-2.78-7.68-5.69-11.3-8.81-2.55-2.34-2.55-2.34-5.69-3.19-0.598-0.763-1.2-1.53-1.81-2.31-2.45-3.01-4.96-4.54-8.19-6.69-1.99-1.67-3.95-3.38-5.88-5.12l-2.93-2.63c-2.2-2.24-2.2-2.24-2.2-4.24-0.959-0.402-0.959-0.402-1.94-0.812-2.06-1.19-2.06-1.19-3.06-4.19-0.577-0.289-1.15-0.578-1.75-0.875-4.27-2.14-7.12-5.94-10.1-9.56-2.6-3.1-5.43-5.62-8.61-8.11-1.52-1.46-1.52-1.46-2.41-3.38-1.5-2.8-3.62-4.13-6.11-6.07-1.49-1.67-2.93-3.38-4.31-5.12-0.697-0.869-1.39-1.74-2.11-2.63-1.57-2.24-1.57-2.24-1.57-4.24h-2c-1.69-1.99-3.26-3.97-4.81-6.06-0.448-0.594-0.896-1.19-1.36-1.8-1.28-1.71-2.56-3.42-3.83-5.14-0.584-0.776-1.17-1.55-1.77-2.35-3.23-4.38-3.23-4.38-3.23-6.65h-2c-1.48-2.05-1.48-2.05-3.19-4.88-2.31-3.74-4.67-7.38-7.25-10.9-4.34-6.12-7.91-12.6-11.6-19.2-0.372-0.631-0.744-1.26-1.13-1.91-2.87-4.88-2.87-4.88-2.87-7.09h-2c-0.78-1.54-1.56-3.08-2.34-4.62-0.705-1.4-1.41-2.8-2.12-4.2-2.1-4.16-4.07-8.35-5.91-12.6-4.71-10.8-8.07-17.7-18.6-23.5-1.67-1.32-3.34-2.66-5-4-0.949-0.474-1.9-0.949-2.88-1.44-3.74-1.87-6.82-3.99-10.1-6.56v-2c-0.701-0.227-1.4-0.454-2.12-0.688-3.51-1.6-5.98-3.79-8.88-6.31-0.784-0.557-1.57-1.11-2.38-1.69-0.804-0.65-0.804-0.65-1.62-1.31v-2c-0.598-0.103-1.2-0.206-1.81-0.312-2.59-0.813-3.39-1.68-5.19-3.69-2.77-2.92-5.54-5.43-8.81-7.75-4.03-2.94-7.14-6.37-10.4-10.1-2.86-3.33-5.8-6.35-9.31-8.98-2.66-2.26-4.31-4.55-6.26-7.41-1.82-2.51-4.03-4.56-6.24-6.72-1.28-1.38-2.55-2.78-3.81-4.19-0.605-0.674-1.21-1.35-1.83-2.04-1.36-1.77-1.36-1.77-1.36-3.77-0.99-0.33-1.98-0.66-3-1-1.82-2-1.82-2-3.69-4.44-0.623-0.803-1.25-1.61-1.89-2.43-1.43-2.13-1.43-2.13-1.43-4.13h-2c-1.65-2.09-3.18-4.18-4.69-6.38-0.448-0.641-0.897-1.28-1.36-1.94-0.905-1.29-1.81-2.59-2.71-3.89-1.61-2.32-3.24-4.62-4.87-6.92-15.4-22.1-15.4-22.1-15.4-25.9h-2c-3-5.75-3-5.75-3-8-4 2.68-7.2 5.02-10 9h-2c-0.408 0.884-0.408 0.884-0.824 1.79-2.91 5.48-7.77 9.92-12.2 14.2-0.887 0.928-1.77 1.86-2.69 2.81-2.31 2.19-2.31 2.19-4.31 2.19-0.268 0.639-0.536 1.28-0.812 1.94-1.19 2.06-1.19 2.06-4.19 3.06-0.289 0.578-0.578 1.16-0.875 1.75-1.17 2.34-2.57 3.78-4.43 5.59-2.14 2.09-4.24 4.22-6.35 6.35-1.76 1.77-3.52 3.54-5.29 5.31-0.881 0.889-1.76 1.78-2.67 2.7-8.89 8.92-8.89 8.92-13.4 12.3h-2c-0.33 0.99-0.66 1.98-1 3-1.97 1.38-3.97 2.71-6 4-2.27 1.72-4.47 3.52-6.69 5.31-5.17 4.13-10.4 7.84-16.1 11.2-2.04 1.33-3.52 2.71-5.21 4.44-1.98 1.04-3.99 2.03-6 3-4.71 2.48-9.23 5.11-13.6 8.12-3.69 2.51-7.25 4.21-11.4 5.88-0.825 0.495-1.65 0.99-2.5 1.5-2.44 1.47-4.92 2.59-7.55 3.69-5.12 2.13-10.2 4.38-15.1 6.94-2.56 1.31-4.97 2.27-7.75 3-3.2 0.62-3.2 0.62-5.12 2.88-1.94 0.476-3.88 0.95-5.83 1.34-2.29 0.598-2.29 0.598-4.55 2.13-3.71 2.17-7.51 2.79-11.7 3.68-3.05 0.876-5.24 2.21-7.94 3.84-2.06 0.406-2.06 0.406-4 0.5-2.77 0.252-3.93 0.46-6.38 1.94-3.35 1.99-6.5 2.43-10.3 3.04-2.56 0.443-2.56 0.443-5.3 2.53-2.02 0.563-2.02 0.563-4.25 1-2.81 0.574-5.44 1.21-8.19 2.06-3.84 1.01-7.47 1.35-11.4 1.59-2.35 0.164-2.35 0.164-4.14 2.34-2.83 0.417-5.6 0.747-8.44 1-6.09 0.442-6.09 0.442-11.6 3-2.22 0.431-4.45 0.774-6.69 1.06l-3.81 0.504c-2.58 0.32-5.17 0.631-7.75 0.934-2.82 0.376-5.43 0.871-8.19 1.5-5.5 1.16-11 1.39-16.6 1.57-2.99 0.121-5.55 0.25-8.33 1.41-7.57 2.9-16.8 2.06-24.8 2.23-0.687 0.0144-1.37 0.0289-2.08 0.0438-2.82 0.0568-5.63 0.112-8.45 0.147-2.1 0.0276-4.19 0.0734-6.28 0.122-1.23 0.0198-2.45 0.0396-3.71 0.0601-5.74 0.729-8.38 3.36-11.9 7.77-1.52 1.76-3.13 3.17-4.91 4.66-5.94 5.13-11.3 10.8-16.8 16.4-1.39 1.42-2.78 2.83-4.18 4.24-0.818 0.835-1.64 1.67-2.48 2.53-2.03 1.82-2.03 1.82-4.03 1.82l-0.125 1.69c-1.07 2.82-2.74 4.08-5.11 5.87-2.43 1.98-4.56 4.22-6.77 6.44-1.02 1.02-2.04 2.04-3.06 3.06-0.544 0.544-1.09 1.09-1.65 1.65-20.2 20.2-20.2 20.2-21.8 21.8-1.41 1.41-2.83 2.83-4.24 4.24-1.57 1.57-3.14 3.12-4.72 4.68-5.52 5.45-5.52 5.45-10.7 11.3-2.62 3.15-5.56 5.71-8.67 8.37-5.68 5.01-11 10.4-15.9 16.2-2.63 3.08-5.43 5.62-8.55 8.18-2.63 2.35-4.85 5-7.13 7.68-2.09 2.42-4.33 4.65-6.62 6.88l-5 5-2.31 2.38c-2.13 2.09-4.29 4.01-6.56 5.94-3.46 2.99-6.38 6.22-9.33 9.7-2.47 2.73-5.21 5.08-8.01 7.46-1.9 1.59-1.9 1.59-3.97 3.71-4.74 4.74-8.08 6.5-14.8 6.81l-2.01 0.191c-6.86 0.418-11.7-2.2-16.8-6.63-6-7.03-6.87-12.5-6.19-21.6 1.31-3.44 1.31-3.44 3-6 0.454-0.846 0.908-1.69 1.38-2.56 2.99-4.48 7.03-7.79 11.1-11.3 3.34-2.94 6.22-5.97 9.03-9.4 2.33-2.62 4.99-4.83 7.66-7.11 3.74-3.22 7-6.74 10.2-10.5 2.99-3.47 6.23-6.39 9.72-9.34 2-1.81 3.72-3.72 5.47-5.78 2.92-3.45 6.09-6.3 9.53-9.22 2-1.81 3.72-3.72 5.47-5.78 2.97-3.51 6.2-6.49 9.71-9.46 1.95-1.63 1.95-1.63 4.17-3.98 1.62-1.56 1.62-1.56 3.62-1.56 0.371-0.835 0.371-0.835 0.75-1.69 2.8-5.19 6.75-8.71 11.2-12.5 4.18-3.65 8.02-7.52 11.5-11.8 2.67-3.13 5.54-5.69 8.66-8.36 2.43-2.1 4.66-4.35 6.9-6.64l2.09-2.06c3.46-3.42 6.87-6.81 9.97-10.6 2.74-3.3 5.86-5.98 9.12-8.75 2.23-2 3.96-4.28 5.81-6.62 1.47-1.22 2.95-2.43 4.44-3.62 1.67-1.47 3.03-3.03 4.44-4.75 2.8-3.38 5.91-6.16 9.24-9 2.42-2.09 4.65-4.33 6.88-6.62 0.804-0.784 1.61-1.57 2.44-2.38 1.98-2.03 3.77-4.06 5.56-6.25 2.4-2.85 4.7-4.59 8-6.38 0.469-0.497 0.939-0.994 1.42-1.51 6.33-5.99 20.5-3.93 28.8-4.06 18 1.2 18 1.2 33.8-2.44 2.12-0.288 4.24-0.516 6.37-0.719l3.93-0.387c1.38-0.132 2.76-0.263 4.14-0.395 2.69-0.256 5.37-0.517 8.06-0.781 1.2-0.114 2.4-0.228 3.63-0.346 2.81-0.205 2.81-0.205 4.87-1.37 1.5-0.264 3-0.485 4.51-0.684 0.905-0.123 1.81-0.246 2.74-0.373 1.89-0.251 3.79-0.501 5.68-0.75 4.69-0.64 9.24-1.4 13.8-2.62 2.87-0.727 5.76-1.33 8.66-1.94 16.6-3.42 16.6-3.42 32.9-7.83 2.54-0.751 5.05-1.34 7.64-1.86 3.94-0.824 7.36-2.34 11.1-3.94 2.71-0.775 5.42-1.48 8.16-2.16 3.42-1.01 6.58-2.41 9.84-3.84 3.12-1.28 6.26-2.51 9.39-3.75 4.23-1.68 8.42-3.45 12.6-5.25 1.64-0.652 3.29-1.3 4.94-1.94 9.1-3.64 17.6-8.45 26.2-13.1 1.65-0.888 3.31-1.77 4.96-2.66 4.9-2.64 9.67-5.37 14.3-8.44 1.56-0.883 1.56-0.883 3.56-0.883v-2c2.08-1.43 4.15-2.76 6.31-4.06 6.68-4.17 12.7-8.8 18.7-13.9 1.15-0.962 2.29-1.92 3.44-2.88 6.55-5.51 12.8-11.1 18.7-17.4 1.89-1.77 1.89-1.77 3.89-1.77 0.247-0.557 0.495-1.11 0.75-1.69 2.83-5.24 6.83-8.81 11.3-12.6 1.99-1.71 1.99-1.71 3.52-3.96 0.455-0.589 0.91-1.18 1.38-1.79h2c0.0915-0.596 0.183-1.19 0.277-1.8 0.902-2.74 2.02-3.56 4.29-5.32 4.82-4.03 8.98-8.61 12.4-13.9v-3c-4.14-0.21-4.14-0.21-8 1-9.24 0.463-18.5-0.201-27.8-0.812l-3.79-0.213c-6.25-0.413-11.8-1.09-17.6-3.31-2.34-0.846-4.54-1.1-7.02-1.22-4.57-0.354-8.53-1.18-12.6-3.42-2.76-1.27-5.44-1.79-8.41-2.39-5.7-1.27-10.6-3.07-15.8-5.62-1.42-0.607-2.83-1.21-4.25-1.81-5.03-2.23-9.83-4.87-14.7-7.52-2.55-1.38-5.11-2.67-7.72-3.92-2.89-1.5-4.2-2.52-6.38-4.75l-2.12-1.06c-1.88-0.938-1.88-0.938-2.88-2.94-1.67-0.968-3.34-1.93-5.03-2.87-5.35-3.08-9.66-6.72-14-11.1-2.39-2.09-4.79-4.17-7.21-6.23l-1.79-1.77v-2c-1.32-0.66-2.64-1.32-4-2v-2c-1.32-0.66-2.64-1.32-4-2v-2c-1.32-0.66-2.64-1.32-4-2v-2h-2v-2c-0.552-0.227-1.1-0.454-1.67-0.688-3.02-1.7-5.14-3.86-7.58-6.31-0.892-0.887-1.78-1.77-2.7-2.69-2.05-2.31-2.05-2.31-2.05-4.31-1.32-0.66-2.64-1.32-4-2v-2c-1.32-0.66-2.64-1.32-4-2v-2c-1.32-0.66-2.64-1.32-4-2v-2c-1.32-0.66-2.64-1.32-4-2v-2c-1.32-0.66-2.64-1.32-4-2v-2c-1.32-0.66-2.64-1.32-4-2v-2l-1.75-0.75c-2.58-1.43-4.31-3.03-6.25-5.25v-2c-1.32-0.66-2.64-1.32-4-2v-2c-1.32-0.66-2.64-1.32-4-2v-2c-1.32-0.66-2.64-1.32-4-2v-2h-2v-2h-2v-2h-2c-1.55-1.61-1.55-1.61-3.31-3.75-2.68-3.17-5.43-5.68-8.69-8.25v-2h-2c-3.26-2.97-6.1-6.25-9-9.56-2.8-3.19-5.65-5.82-9-8.44v-2h-2c-1.6-1.75-3.01-3.6-4.46-5.47-1.53-1.88-1.53-1.88-4.54-1.53-0.34 0.666-0.681 1.33-1.03 2.02-3.26 6.2-6.87 11.8-11.1 17.4-1.95 2.63-1.95 2.63-3.45 5.87-1.39 2.74-1.39 2.74-3.39 3.74-0.495 0.846-0.99 1.69-1.5 2.56l-1.5 2.44h-2l-0.781 2.2c-1.27 2.92-2.76 5.11-4.72 7.61-0.608 0.79-1.22 1.58-1.84 2.39-0.547 0.592-1.09 1.18-1.66 1.79h-2l-0.812 2.44c-0.392 0.846-0.784 1.69-1.19 2.56-0.99 0.33-1.98 0.66-3 1-0.371 1.08-0.371 1.08-0.75 2.19-1.55 3.48-3.58 5.03-6.5 7.39-1.91 1.51-1.91 1.51-4.06 3.8-1.69 1.62-1.69 1.62-3.69 1.62-0.227 0.619-0.454 1.24-0.688 1.88-1.75 2.83-3.17 3.13-6.31 4.12-8.91 0.934-14.9-0.0894-22.2-5.25-5-4.89-7.42-9.49-7.91-16.4 0.512-11.8 9.25-20.5 17.1-28.3 0.886-1.03 1.76-2.07 2.62-3.12 1.74-2.1 3.46-3.96 5.38-5.88 9.87-11.3 17.7-24 25.3-36.9 0.433-0.726 0.866-1.45 1.31-2.2 3.89-6.07 3.89-6.07 5.31-12.9-1.37-2.93-3.64-4.76-5.94-7-0.351-0.722-0.701-1.44-1.06-2.19-1.21-2.34-2.54-2.85-4.94-3.81v-2l-1.8-0.781c-2.38-1.32-3.71-2.64-5.45-4.72-0.521-0.608-1.04-1.22-1.58-1.84-1.17-1.66-1.17-1.66-1.17-3.66h-2c-2.57-2.8-4.76-5.93-7-9-0.499-0.673-0.998-1.35-1.51-2.04-11.2-15.9-18.9-34.5-18.7-54.1-0.00773-0.95-0.0155-1.9-0.0234-2.88 0.0149-5.36 0.488-9.88 2.27-15l0.965-2.88c1.76-4.87 3.52-9.58 6.04-14.1 0.385-0.713 0.771-1.43 1.17-2.16 5.37-9.49 12.1-18.5 21.2-24.7 2.15-1.49 3.86-3.29 5.68-5.16 1.36-0.928 1.36-0.928 2.75-1.88 2.6-1.99 2.6-1.99 2.56-5.38l-0.312-2.75c-0.99-0.33-1.98-0.66-3-1-1.47-2.44-2.76-4.82-4-7.38-0.343-0.666-0.686-1.33-1.04-2.02-4.74-9.57-6.51-18.8-6.4-29.5 0.00685-1.05 0.0137-2.1 0.0208-3.19 0.165-7.97 1.14-14.6 4.42-21.9l1.06-2.5c5.33-11.5 12.9-22.6 21.9-31.5 0.719-0.753 1.44-1.51 2.18-2.28l2.38-2.47c0.744-0.779 1.49-1.56 2.25-2.36 2.23-1.93 3.41-2.24 6.18-2.89 0.33-0.99 0.66-1.98 1-3 1.32-0.702 2.65-1.37 4-2 0.665-0.698 0.665-0.698 1.34-1.41 1.95-1.87 3.85-2.85 6.28-4.03 1.31-0.638 1.31-0.638 2.66-1.29 3.88-1.82 7.79-3.57 11.7-5.27 0.625-17.1-1.87-33.8-6.09-50.3-0.919-3.75-1.76-7.5-2.6-11.3-3.87-17.4-8.47-34.5-14.3-51.4-0.663-1.99-1.32-3.98-1.97-5.97-0.995-3.01-2.01-6.02-3.03-9.03-0.289-0.886-0.578-1.77-0.875-2.68-0.779-2.38-0.779-2.38-2.12-5.32-0.99-0.33-1.98-0.66-3-1v2c-0.835 0.273-0.835 0.273-1.69 0.551-3.81 1.25-7.58 2.54-11.3 4.01-3.55 1.36-7.1 2.19-10.8 2.91-2.24 0.476-2.24 0.476-4.47 1.53-3.4 1.26-6.75 1.58-10.3 1.94-5.75 0.634-11.1 1.6-16.7 3.38-7.19 1.8-14.6 1.83-21.9 1.82-0.945 9.57e-4 -1.89 0.00191-2.86 0.0029-1.98 6.76e-4 -3.97-0.00114-5.95-0.00534-3.02-0.00536-6.04-3.28e-5 -9.06 0.00635-1.94-6.61e-4 -3.88-0.00194-5.81-0.00391-1.34 0.00304-1.34 0.00304-2.71 0.00613-7.58-0.0281-14.5-0.437-21.6-3.45-0.984-0.409-1.97-0.817-2.98-1.24-3.67-1.88-7.2-3.69-8.64-7.7l-0.188-1.75h-2c-2.25-3.6-2.3-6.68-2.31-10.9-0.0168-1.19-0.0335-2.39-0.0508-3.62 0.594-5.74 2.81-9.5 7.18-13.2 0.646-0.561 1.29-1.12 1.96-1.7 6.84-4.95 12.3-4.99 20.5-4.84 1.79 0.0135 1.79 0.0135 3.63 0.0272 3.83 0.03 7.65 0.0797 11.5 0.133 27 0.419 27 0.419 53.6-3.94 1.41-0.34 1.41-0.34 2.86-0.688 3.06-0.744 6.1-1.52 9.14-2.31 1.2-0.286 1.2-0.286 2.43-0.578 11.6-3.05 22.9-9.34 32.6-16.4 0.648-0.458 1.3-0.915 1.96-1.39 10.1-7.28 18.7-16.2 27.3-25 0.71-0.721 1.42-1.44 2.15-2.19 0.638-0.655 1.28-1.31 1.93-1.98 1.63-1.42 1.63-1.42 3.63-1.42 0.309-0.797 0.309-0.797 0.625-1.61 1.95-3.4 4.6-5.9 7.38-8.64 0.547-0.554 1.09-1.11 1.66-1.68 4.09-4.07 4.09-4.07 6.34-4.07 0.258-0.582 0.516-1.16 0.781-1.77 1.32-2.43 2.77-4.04 4.72-5.99 0.714-0.72 1.43-1.44 2.16-2.18 0.771-0.767 1.54-1.53 2.34-2.32 0.791-0.793 1.58-1.59 2.4-2.4 1.67-1.67 3.35-3.34 5.02-5.01 2.58-2.56 5.14-5.14 7.7-7.72 1.62-1.62 3.25-3.25 4.88-4.87 0.771-0.775 1.54-1.55 2.34-2.35 1.07-1.06 1.07-1.06 2.16-2.14 0.629-0.627 1.26-1.25 1.91-1.9 1.59-1.34 1.59-1.34 3.59-1.34 0.276-0.592 0.552-1.18 0.836-1.79 2.56-4.85 6.45-8.69 10.6-12.2 4.27-3.63 8.22-7.54 12.2-11.5 0.633-0.629 1.27-1.26 1.92-1.91 3.55-3.57 6.89-7.23 10.1-11.1 1.63-1.85 3.4-3.4 5.33-4.95 12.7-10.9 22.3-30.5 23.9-47.2 1.16-21.5-3.39-37.6-16.9-54.3-5.63-6.21-13.7-10.8-22-12-11.2-0.544-20.9-0.613-30.4 5.98-1.63 1.02-1.63 1.02-3.63 1.02-0.33 0.99-0.66 1.98-1 3-1.33 0.333-2.67 0.667-4 1-0.33 0.99-0.66 1.98-1 3-1.46 1.29-1.46 1.29-3.38 2.62-4.57 3.28-8.83 6.87-13.1 10.5-2.38 1.76-3.74 2.17-6.52 2.86-0.33 0.99-0.66 1.98-1 3-1.97 1.43-3.94 2.72-6 4-5.29 3.44-10.4 6.99-15.4 10.9-1.63 1.1-1.63 1.1-3.63 1.1-0.33 0.99-0.66 1.98-1 3-1.69 1.03-3.38 2.04-5.12 2.98-2.75 1.5-5.28 3.28-7.88 5.02-2.77 1.75-5.54 3.49-8.32 5.22-2.73 1.75-2.73 1.75-5.3 3.89-2.02 1.6-3.69 2.67-6.01 3.71-4.58 2.17-8.68 4.95-12.9 7.8-2.52 1.39-2.52 1.39-6.52 1.39l-1 3c-1.56 1.03-1.56 1.03-3.55 1.93-1.08 0.508-1.08 0.508-2.19 1.03l-2.26 1.04c-1.37 0.674-2.74 1.35-4.11 2.04-2.05 1.02-4.1 2.04-6.16 3.05-2.87 1.43-5.67 2.87-8.41 4.53-2.39 1.42-4.73 2.4-7.32 3.38-3.58 1.39-6.74 2.95-10 5-1.66 0.686-3.33 1.35-5 2-6.45 2.56-12.9 5.14-19.2 8-3.24 1.46-6.38 2.87-9.78 3.93-4.29 1.52-8.07 3.78-12 6.06l-2.94 1.62c-2.33 1.36-2.33 1.36-4.06 4.38-0.722 0.392-1.44 0.784-2.19 1.19-10.1 6.52-16.8 19.2-23.5 29-3.69 5.35-7.51 10.6-11.4 15.8-2 2.74-3.99 5.48-5.98 8.23-1.39 1.91-2.79 3.83-4.2 5.73-0.705 0.962-1.41 1.92-2.14 2.91l-1.93 2.62c-1.82 2.51-1.82 2.51-3.37 5.33-0.46 0.719-0.92 1.44-1.39 2.18h-2l-0.742 2.15c-1.43 3.24-3.22 5.68-5.38 8.48l-2.42 3.17-1.24 1.61c-1.9 2.49-3.75 5.01-5.59 7.53-0.626 0.855-1.25 1.71-1.9 2.59-1.79 2.48-1.79 2.48-3.33 5.29-0.461 0.721-0.923 1.44-1.4 2.18h-2c-0.383 1.08-0.383 1.08-0.773 2.18-1.31 3.01-2.88 5.32-4.85 7.95-2.82 3.78-5.59 7.59-8.31 11.4-12.6 17.4-12.6 17.4-21.1 19.4-6.48 0.672-11.6 0.305-17.4-2.73-1.56-1.27-1.56-1.27-2.59-3.34-0.87-2.28-0.87-2.28-3.97-2.92-4.19-4.67-4.46-9.76-4.42-15.8 1.03-7.76 4.77-14.8 10.4-20.2 8.58-10.3 16.2-21.6 23.5-32.9 1.71-2.47 3.57-4.77 5.46-7.11 8.81-11.6 17.3-23.4 25.7-35.2 1.3-1.82 2.6-3.65 3.91-5.47 8.3-10.8 8.3-10.8 15.4-22.3h2c0.248-0.722 0.495-1.44 0.75-2.19 1.38-3.11 3.09-5.17 5.25-7.81 0.989-1.49 1.97-2.99 2.94-4.5 2.38-3.61 4.92-6.51 8.06-9.5 0.945-1.14 1.88-2.29 2.81-3.44 3.3-3.88 7.02-6.67 11.2-9.56 1.03-0.726 2.06-1.45 3.12-2.2 2.25-1.58 4.52-3.15 6.8-4.7 1.72-1.17 3.44-2.36 5.13-3.58 5.56-3.82 11.8-5.84 18.1-8.12 3.6-1.3 7.08-2.8 10.6-4.41 2.91-1.27 5.87-2.38 8.84-3.5 4.18-1.59 8.19-3.26 12.1-5.34 3.22-1.64 6.51-3.15 9.79-4.66 4.14-1.92 8.26-3.85 12.3-5.94 3.19-1.56 3.19-1.56 5.19-1.56v-2l6.93-3.42c13.7-7.08 27.4-14.9 39.9-24 2.38-1.69 4.83-3.21 7.32-4.74 5.57-3.5 10.8-7.42 16-11.4 3.75-2.85 7.53-5.63 11.4-8.29 3.51-2.42 6.73-5.02 9.91-7.85 2.02-1.69 4.26-2.93 6.52-4.27 1.36-1.31 2.69-2.65 4-4 13.1-11.3 27.3-21.1 44-26 0.982-0.344 1.96-0.688 2.98-1.04 6.58-2.08 12.9-2.14 19.8-2.14 0.938-0.0122 1.88-0.0245 2.84-0.0371 9.36-0.0194 17.8 1.59 26.4 5.22 0.684 0.276 1.37 0.552 2.07 0.836 7.65 3.21 16.2 7.02 21.9 13.2 1.08 0.904 2.16 1.8 3.25 2.69 3.37 2.86 6.23 6 9.07 9.38 1.67 1.98 1.67 1.98 3.68 3.87 9.18 9.47 16.9 24.8 19.4 37.7 0.483 2.63 0.483 2.63 2.57 5.39 0.414 2.26 0.414 2.26 0.625 4.69 0.112 1.21 0.112 1.21 0.227 2.45 0.049 0.615 0.098 1.23 0.148 1.86 1.32 0.33 2.64 0.66 4 1 0.412-0.496 0.825-0.993 1.25-1.5 3.65-4.3 7.43-8.14 11.8-11.8 2.45-2.14 4.71-4.42 6.99-6.74 0.978-0.98 1.96-1.96 2.94-2.94 0.754-0.754 0.754-0.754 1.52-1.52 19.5-19.5 19.5-19.5 21.7-21.7 2.77-2.77 5.51-5.58 8.24-8.38 2.87-2.94 5.76-5.87 8.64-8.79 1.52-1.54 3.03-3.09 4.54-4.64 2.19-2.25 4.39-4.48 6.6-6.71 0.665-0.691 1.33-1.38 2.01-2.09 5.77-5.77 11.4-8.67 19.8-8.68 5.49 0.186 9.73 0.844 14 4.44 6.24 7.09 8.44 13.4 8.27 22.8-1.17 9.63-11.6 17.9-18.6 23.7-1.9 1.6-1.9 1.6-3.66 4.51h-2c-0.253 0.592-0.505 1.18-0.766 1.79-1.38 2.47-2.8 3.74-4.98 5.52-2.67 2.25-5.04 4.48-7.25 7.19-2.75 3.35-5.83 6.07-9.17 8.82-1.92 1.65-1.92 1.65-3.45 3.88-0.458 0.592-0.915 1.18-1.39 1.79h-2c-0.33 0.99-0.66 1.98-1 3-1.57 1.51-1.57 1.51-3.56 3.12-3.14 2.65-5.88 5.4-8.56 8.5-3.05 3.53-6.28 6.4-9.88 9.38-1.14 1.27-2.27 2.57-3.38 3.88-2.94 3.46-6.1 6.33-9.57 9.25-3.08 2.81-5.72 5.96-8.39 9.15-0.824 0.853-0.824 0.853-1.66 1.72h-2c-0.249 0.588-0.498 1.18-0.754 1.78-1.42 2.53-2.95 3.89-5.18 5.72-2.21 1.82-3.99 3.4-5.69 5.72-0.452 0.588-0.905 1.18-1.37 1.78h-2c-0.33 0.99-0.66 1.98-1 3-1.62 1.71-3.3 3.37-5 5-1.14 1.18-1.14 1.18-2.31 2.38-2.13 2.09-4.29 4.01-6.56 5.94-3.52 3.04-6.54 6.31-9.55 9.85-3.85 4.48-8.2 8.3-12.7 12.1-1.95 1.71-1.95 1.71-3.48 3.96-0.456 0.589-0.913 1.18-1.38 1.79h-2c-0.232 0.571-0.464 1.14-0.703 1.73-1.62 2.83-3.57 4.47-6.05 6.58-3.6 3.15-6.74 6.31-9.75 10-2.33 2.62-5.02 4.8-7.7 7.07-1.95 1.66-1.95 1.66-3.8 4.12-1.81 2.26-3.55 3.89-5.75 5.75-3.84 3.27-7.07 6.87-10.4 10.7-2.43 2.68-5.05 4.81-7.88 7.07-2.69 2.56-5.1 5.12-7.44 8-2.63 3.08-5.43 5.45-8.56 8-3.3 3.13-6.3 6.47-9.31 9.88-3.27 3.66-6.63 6.91-10.4 10.1-4.82 4.29-9.29 8.96-13.8 13.6-1.36 1.37-2.74 2.73-4.11 4.09-2.33 2.36-4.51 4.79-6.69 7.28-2.91 3.31-5.79 6.04-9.31 8.69-2.74 2.3-2.74 2.3-3.75 5.62 0.413 5 2.25 9.3 4.38 13.8 1.11 3.13 2.06 6.24 2.94 9.44 0.993 3.59 0.993 3.59 2.56 7 1.34 3.19 2.19 6.12 2.97 9.46 0.948 3.77 2.26 7.42 3.53 11.1 1.94 5.63 3.6 11.2 5 17 0.371 1.26 0.743 2.52 1.12 3.81 0.875 3.19 0.875 3.19 0.875 6.19 5.01-2.24 9.22-5.22 13.6-8.48 2.21-1.42 3.81-2.09 6.37-2.52v-2c8.27-3.77 16-7.01 25-8.57 1.99-0.238 1.99-0.238 3-1.43 9.77-0.625 18.6 0.0114 28 3l0.688-2.88c4.02-13.8 13.6-24.9 23.3-35.1 0.562-0.615 1.12-1.23 1.7-1.86 10.4-11 23.5-18.4 37.3-24.1 1.03-0.433 1.03-0.433 2.09-0.875 6.84-2.73 13.6-3.31 20.9-3.31 0.673-0.0122 1.35-0.0245 2.04-0.0371 4.66-0.0135 8.54 0.804 13 2.22 2.82 0.712 5.63 1.42 8.45 2.12 2.69 0.925 4.36 2.1 6.55 3.88l3.12 1.69c7.4 4.16 13.7 9.63 18.9 16.3 1.65 1.69 3.31 3.35 5 5 1.11 1.14 1.11 1.14 2.25 2.31 2.36 2.31 4.77 4.5 7.25 6.69 8.09 7.15 8.09 7.15 11.3 11.4 2.51 3.02 5.33 5.39 8.31 7.94 2.25 2.03 3.98 4.32 5.88 6.69 2.03 1.87 4.1 3.66 6.2 5.45 1.8 1.55 1.8 1.55 3.8 3.55h4c1.87-2.5 1.87-2.5 3.44-5.69 2.46-4.47 4.68-7.94 8.56-11.3 0.784-0.804 1.57-1.61 2.38-2.44 16.1-15.7 35.7-27.8 58.6-28.6 9.62 0.292 17.4 2.6 26 6.76 3.93 1.64 3.93 1.64 8.02 1.24 2.41-1.78 4.4-3.88 6.44-6.06 0.578-0.598 1.16-1.2 1.75-1.81 3.28-3.41 6.41-6.92 9.42-10.6 2.24-2.5 4.79-4.62 7.36-6.77 2.46-2.15 4.73-4.45 7.03-6.77 10-10 10-10 12.4-12.4 1.97-1.97 3.92-3.95 5.87-5.95 1.14-1.16 2.28-2.32 3.43-3.48 0.581-0.597 1.16-1.19 1.76-1.81 1.48-1.5 3.01-2.94 4.55-4.38h2c0.227-0.557 0.454-1.11 0.688-1.69 1.68-2.96 3.88-4.93 6.31-7.31 0.767-0.767 1.53-1.53 2.32-2.32 17.7-17.7 17.7-17.7 20.3-20.3 2.43-2.39 2.43-2.39 4.66-5.26 2.61-3.2 5.63-5.79 8.77-8.46 2.43-2.1 4.68-4.36 6.92-6.66 1.67-1.67 3.33-3.33 5-5 1.27-1.27 2.54-2.54 3.81-3.81l75.7-75.7c0.78-0.781 1.56-1.56 2.36-2.37 1.24-1.24 2.48-2.48 3.73-3.71 2.04-2.02 3.88-4.02 5.69-6.27 2.61-3.2 5.63-5.79 8.77-8.46 2.43-2.1 4.68-4.36 6.92-6.66 2.62-2.63 5.26-5.26 7.9-7.87 6.4-6.27 6.4-6.27 12.3-12.9 2.66-3.22 5.69-5.86 8.87-8.56 2.42-2.09 4.65-4.33 6.88-6.62 15-15 15-15 17.2-17.2 4.06-4.15 7.89-8.48 11.8-12.8 0.601-0.661 1.2-1.32 1.82-2 12.3-13.7 25.2-30.3 31.2-48 0.499-1.25 0.999-2.5 1.5-3.75 0.511-1.41 1.01-2.83 1.5-4.25 0.282-0.791 0.565-1.58 0.855-2.4 4.53-14.8 4.03-32.2-3.07-46-5.6-9.4-15-18.1-25.6-21.2-7.12-1.56-13.9-1.65-21.2-1.47-0.935 0.0168-1.87 0.0335-2.83 0.0508-7.69 0.394-14.1 2.94-21.2 5.95-0.692 0.282-1.38 0.565-2.1 0.855-9.86 4.07-18.6 9.34-27.1 15.8-2.17 1.61-4.48 2.94-6.8 4.34-2.1 1.57-4.17 3.17-6.23 4.79-1.77 1.21-1.77 1.21-3.77 1.21-0.244 0.593-0.487 1.19-0.738 1.8-1.49 2.6-3.01 3.73-5.45 5.45-4.07 3.03-7.23 6.3-10.4 10.2-0.698 0.744-0.698 0.744-1.41 1.5h-2c-0.227 0.557-0.454 1.11-0.688 1.69-1.68 2.95-3.86 4.98-6.31 7.31-0.66 0.66-1.32 1.32-2 2h-3c-0.0941 0.596-0.188 1.19-0.285 1.8-0.882 2.71-1.94 3.55-4.15 5.32-6.55 5.48-12.6 11.5-18.1 18-3.13 3.66-6.61 6.73-10.2 9.88-2.08 1.9-3.88 3.85-5.69 6-3.18 3.77-6.71 6.96-10.4 10.2-3.49 3.05-6.6 6.25-9.57 9.81-3.05 3.66-6.16 6.97-9.94 9.88-2.15 1.79-3.73 3.43-5.5 5.56-2.76 3.32-5.71 5.85-9.06 8.56-2.69 2.56-5.1 5.12-7.44 8-2.63 3.08-5.43 5.45-8.56 8-2.5 2.38-4.77 4.7-6.88 7.44-1.77 2.14-3.38 3.69-5.5 5.44-2.45 2.04-4.54 4.1-6.56 6.56-2.78 3.38-5.92 6.11-9.25 8.94-2.24 2-4 4.24-5.82 6.62-2.38 2.5-4.71 4.77-7.44 6.88-2.72 2.26-4.83 4.69-7.09 7.39-2.71 3.2-5.59 6.05-8.91 8.61-2.72 2.26-4.84 4.69-7.1 7.4-3.03 3.57-6.4 6.7-9.96 9.73-5.07 4.31-9.46 9.07-13.8 14.1-2.13 2.41-4.38 4.66-6.69 6.91-0.545 0.556-1.09 1.11-1.65 1.68-2.72 2.76-5.4 5.36-8.41 7.82-2.85 2.43-5.12 4.94-7.5 7.8-2.7 3.19-5.57 6.03-8.88 8.57-2.72 2.26-4.83 4.69-7.09 7.39-2.71 3.2-5.59 6.05-8.91 8.61-2.15 1.79-3.73 3.43-5.5 5.56-1.92 2.32-3.65 4.05-6 6-3.2 2.67-5.72 5.56-8.41 8.72-2.01 2.24-4.3 3.97-6.66 5.84-0.977 1.11-1.93 2.24-2.88 3.38-2.04 2.45-4.1 4.54-6.56 6.56-3.35 2.76-6.06 5.87-8.87 9.18-1.54 1.71-3.09 3.14-4.88 4.57-2.85 2.17-2.85 2.17-4.75 4.81-5.14 6.23-12.9 10.7-20.8 12.2-6.01-0.288-11.6-4.18-16.2-7.69-0.33-0.99-0.66-1.98-1-3h-2c-3.88-5.43-4.35-10.4-4-17 1.66-7.8 7.37-13.7 13-19 2.78-2.76 5.53-5.54 8.26-8.33 1.14-1.16 2.28-2.32 3.43-3.48 0.581-0.597 1.16-1.19 1.76-1.81 1.48-1.5 3.01-2.94 4.55-4.38h2c0.377-0.868 0.377-0.868 0.762-1.75 1.39-2.53 2.98-4.18 5.05-6.18 0.714-0.695 1.43-1.39 2.16-2.11l2.02-1.96c0.887-0.908 1.77-1.82 2.69-2.75 2.31-2.25 2.31-2.25 4.75-4.12 2.72-2.26 4.84-4.69 7.1-7.4 2.02-2.38 4.23-4.54 6.46-6.72 0.593-0.615 1.19-1.23 1.8-1.86 0.936-0.965 0.936-0.965 1.89-1.95 0.581-0.605 1.16-1.21 1.76-1.83 1.55-1.36 1.55-1.36 3.55-1.36 0.227-0.557 0.454-1.11 0.688-1.69 1.69-2.97 3.87-4.92 6.31-7.31 1.64-1.9 3.26-3.81 4.86-5.74 1.86-1.97 3.75-3.68 5.81-5.44 4.07-3.55 7.91-7.27 11.7-11.1 0.665-0.666 1.33-1.33 2.01-2.02 2.1-2.1 4.19-4.21 6.29-6.32 1.41-1.42 2.83-2.84 4.24-4.26 2.6-2.6 5.19-5.21 7.78-7.81 3.58-3.6 7.17-7.2 10.8-10.8 5.43-5.33 5.43-5.33 10.4-11.1 2.26-2.59 2.95-2.78 6.12-3.44 0.677-1.33 1.34-2.66 2-4 1.34-1.57 1.34-1.57 2.86-3.06 0.836-0.827 0.836-0.827 1.69-1.67 0.581-0.564 1.16-1.13 1.76-1.71 0.569-0.56 1.14-1.12 1.72-1.7 1.12-1.1 2.25-2.21 3.37-3.31 2.21-2.17 4.4-4.36 6.59-6.56 35.8-35.8 35.8-35.8 37.5-37.5 1.39-1.39 2.77-2.77 4.16-4.16 2.26-2.26 4.53-4.51 6.79-6.76 1.67-1.66 3.34-3.32 5-4.98 0.833-0.825 1.67-1.65 2.53-2.5 3.51-3.5 6.98-6.97 10.1-10.8 2.66-3.19 5.64-5.81 8.79-8.5 3.74-3.26 7.23-6.77 10.7-10.3 0.724-0.712 1.45-1.42 2.2-2.16 4-3.99 7.52-8.04 10.8-12.6 1.89-2.5 4.1-4.62 6.36-6.79 6.45-7.24 11.9-15 16.9-23.2 1.04-1.69 2.11-3.36 3.18-5.03 10.8-17.6 17.3-39.4 12.8-60-1.43-5.15-3.72-9.35-6.67-13.8-1.21-1.96-1.21-1.96-1.21-3.96h-2c-1.34-1.66-2.67-3.33-4-5-6.17-5.31-12.2-8.91-20-11-0.66-0.33-1.32-0.66-2-1-3.31-0.238-6.62-0.185-9.94-0.188-0.92-0.0122-1.84-0.0245-2.79-0.0371-0.884-0.00193-1.77-0.00387-2.68-0.00586-0.809-0.00411-1.62-0.00822-2.45-0.0125-2.44 0.111-2.44 0.111-5.14 2.24-3.12 0.685-6.23 1.25-9.38 1.77-4.19 0.755-7.08 1.94-10.6 4.23-1.68 0.706-1.68 0.706-3.39 1.43-4.91 2.14-9.22 5.03-13.7 7.93-2.89 1.64-2.89 1.64-5.89 1.64-0.33 0.99-0.66 1.98-1 3-2.4 1.79-2.4 1.79-5.38 3.62-0.977 0.611-1.95 1.22-2.96 1.85-2.66 1.52-2.66 1.52-5.66 2.52-0.33 0.99-0.66 1.98-1 3-1.67 0.667-3.33 1.33-5 2-0.33 0.99-0.66 1.98-1 3-0.804 0.309-1.61 0.619-2.44 0.938-2.67 0.772-2.67 0.772-3.42 2.86-1.5 2.89-3.48 4.47-5.95 6.58-4.16 3.63-4.16 3.63-7.81 7.75-1.99 2.4-3.83 4.19-6.19 6.19-3.78 3.21-6.94 6.74-10.2 10.5-2.56 2.8-5.38 5.2-8.27 7.65-2.21 1.97-3.91 4.24-5.74 6.55-1.45 1.19-2.9 2.38-4.37 3.55-1.88 1.66-3.45 3.47-5.07 5.38-2.77 3.26-5.7 5.98-9 8.69-2.16 1.9-3.82 4.09-5.56 6.37-4.82 5.28-11.3 9.43-18.5 10.3-5.32 0.168-8.96-0.377-13.5-3.29-1.55-0.928-1.55-0.928-3.12-1.88-5.28-3.9-7.7-7.63-8.88-14.1 0-5.98 0.831-10.8 4-16 0.578-0.99 1.15-1.98 1.75-3 2.26-3.02 4.57-5.07 7.46-7.44 1.78-1.56 3.23-3.17 4.72-5 2.72-3.29 5.74-5.98 8.98-8.74 3.54-3.1 6.79-6.47 10.1-9.82 1.67-1.67 3.33-3.33 5-5 1.27-1.27 2.54-2.54 3.81-3.81 9.06-9.06 18.1-18.1 27.2-27.2 1.03-1.05 1.03-1.05 2.09-2.12 1.77-1.74 3.58-3.35 5.48-4.95 1.69-1.42 3.33-2.82 4.87-4.4 2.59-2.54 5.53-4.63 8.41-6.82 2.1-1.6 2.1-1.6 3.59-3.18 1.52-1.5 3.05-2.71 4.78-3.95 0.604-0.432 1.21-0.865 1.83-1.31 0.625-0.443 1.25-0.886 1.89-1.34 0.621-0.447 1.24-0.893 1.88-1.35 2.43-1.73 4.76-3.37 7.44-4.71 1.81-0.792 1.81-0.792 3.11-2.27 11.7-11.5 35.9-20.5 51.6-23.2 2.21-0.356 2.21-0.356 4.7-1.46 6.45-2.55 14-2.12 20.8-2.12z" fill="#06070A"></path>
<path transform="translate(1378 303)" d="m0 0c1.03 0.0271 2.06 0.0541 3.12 0.082 6 0.238 10.4 0.842 15.7 3.67 0.582 0.295 1.16 0.59 1.76 0.894 11.8 6.27 19.5 16.9 24 29.3 2.88 10.3 1.92 22.6-0.797 32.8-0.229 0.937-0.459 1.87-0.695 2.84-1.29 5.07-2.78 9.55-5.3 14.2-0.289 0.763-0.577 1.53-0.875 2.31-2.94 7.03-7.09 13.2-11.5 19.4-1.25 1.75-2.45 3.54-3.62 5.34-6.69 9.82-14.6 18.5-23 26.9-0.619 0.804-1.24 1.61-1.88 2.44-1.76 2.12-3.34 3.64-5.44 5.38-2.54 2.12-4.74 4.29-6.88 6.81-3.22 3.78-6.63 7.34-10.1 10.9-0.528 0.541-1.06 1.08-1.6 1.64-1.32 1.33-2.7 2.6-4.09 3.86h-2c-0.66 1.32-1.32 2.64-2 4h-2c-0.247 0.578-0.495 1.15-0.75 1.75-1.43 2.58-3.03 4.31-5.25 6.25h-2c-0.227 0.557-0.454 1.11-0.688 1.69-1.69 2.98-3.83 4.94-6.31 7.31-0.598 0.619-1.2 1.24-1.81 1.88-0.619 0.639-1.24 1.28-1.88 1.94-0.581 0.605-1.16 1.21-1.76 1.83-1.55 1.36-1.55 1.36-3.55 1.36-0.66 1.32-1.32 2.64-2 4h-2c-0.66 1.32-1.32 2.64-2 4h-2c-0.247 0.578-0.495 1.15-0.75 1.75-1.43 2.58-3.03 4.31-5.25 6.25h-2c-0.66 1.32-1.32 2.64-2 4h-2c-0.66 1.32-1.32 2.64-2 4h-2c-0.247 0.578-0.495 1.15-0.75 1.75-1.43 2.58-3.03 4.31-5.25 6.25h-2c-0.66 1.32-1.32 2.64-2 4h-2c-0.66 1.32-1.32 2.64-2 4h-2c-0.66 1.32-1.32 2.64-2 4h-2c-0.247 0.572-0.495 1.14-0.75 1.73-1.44 2.62-3.13 4.41-5.25 6.52-1.05 1.06-1.05 1.06-2.12 2.14-1.88 1.61-1.88 1.61-3.88 1.61-0.66 1.32-1.32 2.64-2 4h-2c-0.66 1.32-1.32 2.64-2 4h-2l-0.781 1.77c-1.32 2.41-2.77 4.05-4.72 5.98-0.608 0.614-1.22 1.23-1.84 1.86-1.66 1.39-1.66 1.39-3.66 1.39-0.268 0.639-0.536 1.28-0.812 1.94-1.19 2.06-1.19 2.06-4.19 3.06-1.21 2-1.21 2-2 4h-2c-0.66 1.32-1.32 2.64-2 4h-2c-0.247 0.572-0.495 1.14-0.75 1.73-1.44 2.62-3.13 4.41-5.25 6.52-1.05 1.06-1.05 1.06-2.12 2.14-1.88 1.61-1.88 1.61-3.88 1.61-0.66 1.32-1.32 2.64-2 4h-2c-0.66 1.32-1.32 2.64-2 4h-2c-0.66 1.32-1.32 2.64-2 4h-2c-0.66 1.32-1.32 2.64-2 4h-2c-0.66 1.32-1.32 2.64-2 4h-2c-0.242 0.565-0.484 1.13-0.733 1.71-1.52 2.74-3.34 4.64-5.55 6.87-0.885 0.901-1.77 1.8-2.68 2.73-0.968 0.974-1.94 1.95-2.9 2.92-0.994 1-1.99 2.01-2.98 3.01-2.08 2.1-4.17 4.19-6.26 6.28-2.68 2.68-5.33 5.38-7.99 8.08-2.05 2.08-4.1 4.14-6.16 6.2-0.985 0.989-1.97 1.98-2.94 2.98-1.37 1.39-2.75 2.77-4.13 4.14-0.782 0.787-1.56 1.57-2.37 2.39-2.3 1.68-2.3 1.68-4.92 2.1-3.85-0.677-5.6-3.61-7.88-6.54-0.46-0.57-0.92-1.14-1.39-1.73-0.926-1.15-1.85-2.3-2.76-3.46-2.07-2.6-4.21-5.14-6.35-7.69-1.52-1.85-3.04-3.71-4.56-5.56-0.744-0.909-1.49-1.82-2.25-2.75-1.46-1.8-2.91-3.6-4.35-5.42-1.74-2.24-1.74-2.24-3.58-3.95-1.25-1.31-1.25-1.31-1.25-3.31-0.557-0.206-1.11-0.412-1.69-0.625-3.28-1.95-5.02-4.32-7.31-7.38v-2c-0.548-0.22-1.1-0.441-1.66-0.668-3.08-1.75-5.34-4.12-7.78-6.64-0.465-0.474-0.929-0.947-1.41-1.44-1.39-1.41-2.77-2.83-4.15-4.25-1.41-1.35-1.41-1.35-2.85-2.73-2.15-2.27-2.15-2.27-2.15-4.27-0.835-0.371-0.835-0.371-1.69-0.75-4.84-2.61-8.46-6.4-12.3-10.2-1.16-0.951-1.16-0.951-2.35-1.92-0.833-0.686-1.67-1.37-2.52-2.08-0.802-0.639-1.6-1.28-2.43-1.94-1.7-2.06-1.7-2.06-1.68-4.61 1.14-2.84 2.21-3.91 4.61-5.77 2.94-2.41 5.49-4.84 7.94-7.75 2.68-3.16 5.5-5.76 8.69-8.38 1.91-1.71 3.53-3.54 5.18-5.5 2.91-3.44 6.06-6.29 9.49-9.2 1.91-1.73 3.53-3.48 5.19-5.45 4.42-5.12 9.2-9.85 14-14.6 0.88-0.876 1.76-1.75 2.67-2.65 2.4-2.39 4.8-4.77 7.21-7.16 3.21-3.2 6.4-6.42 9.57-9.64 1.7-1.72 3.41-3.45 5.11-5.17 0.867-0.884 1.73-1.77 2.63-2.68 0.828-0.835 1.66-1.67 2.51-2.53 0.754-0.764 1.51-1.53 2.28-2.32 1.89-1.66 1.89-1.66 3.89-1.66 0.227-0.557 0.454-1.11 0.688-1.69 1.66-2.92 3.93-4.98 6.31-7.31 1.2-1.2 2.4-2.39 3.59-3.59 31.6-31.6 63.3-63.3 94.9-94.9 0.784-0.784 1.57-1.57 2.38-2.38 1.61-1.61 3.23-3.23 4.85-4.84 1.65-1.65 3.29-3.31 4.93-4.97 8.33-8.41 8.33-8.41 11.6-11 2.17-1.82 3.69-3.39 5.44-5.56 3.21-3.89 7-6.83 11-9.89 2.19-1.66 2.19-1.66 3.65-3.23 2.55-2.47 5.48-4.41 8.37-6.45 0.596-0.422 1.19-0.843 1.8-1.28 1.2-0.852 2.41-1.7 3.61-2.55 1.88-1.33 3.76-2.68 5.64-4.02 2.69-1.91 5.33-3.64 8.2-5.27 0.951-0.553 0.951-0.553 1.92-1.12 9.98-5.7 19.6-9.52 30.8-12.1 5.94-1.43 10.2-1.8 16.5-1.55z" fill="#F9FCFE"></path>
<path transform="translate(301 554)" d="m0 0c5.1 2.9 8.42 5.68 11.1 10.9 0.351 0.584 0.701 1.17 1.06 1.77 2.47 5.88 1.94 13.4-0.16 19.3-2.77 5.27-6.18 9.77-10.3 14.1-1.86 2.14-3.18 4.41-4.61 6.85-1.23 1.74-2.48 3.47-3.75 5.19-3.39 4.6-6.63 9.27-9.8 14-0.477 0.594-0.954 1.19-1.45 1.8h-2c-0.34 0.99-0.34 0.99-0.688 2-1.42 3.25-3.17 6.07-5.09 9.04-1.2 1.94-2.23 3.91-3.22 5.96h-2c-0.248 0.99-0.495 1.98-0.75 3-1.41 4.93-3.79 9.3-6.22 13.8-2.87 5.44-4.82 11.1-6.78 16.9-1.25 3.27-1.25 3.27-2.74 5.62-2.13 3.73-3.02 7.63-4.07 11.8-0.413 1.61-0.831 3.21-1.25 4.82-0.27 1.06-0.27 1.06-0.545 2.14-0.638 1.91-0.638 1.91-2.64 4.91-0.397 1.78-0.724 3.57-1 5.38-0.591 3.83-1.54 7.04-3 10.6-0.165 1.2-0.33 2.39-0.5 3.62-0.5 3.38-0.5 3.38-2.5 6.38-0.514 2.27-0.514 2.27-0.781 4.78-0.12 0.924-0.24 1.85-0.363 2.8-0.117 0.963-0.235 1.93-0.355 2.92-0.232 1.91-0.472 3.81-0.719 5.72l-0.311 2.56c-0.471 2.22-0.471 2.22-2.47 5.22-0.247 2.08-0.403 4.16-0.5 6.25-0.302 4.9-1.15 9.03-2.5 13.8-0.322 3.06-0.52 6.12-0.723 9.2-0.317 4.34-0.745 8.66-1.21 13l-0.227 2.19c-0.42 3.81-1.01 7.49-1.86 11.2-1.09 5.42-1.25 10.6-1.22 16.1-0.00285 1.53-0.00285 1.53-0.00575 3.1-0.00367 3.34 0.00694 6.69 0.0182 10 0.00119 2.34 0.00164 4.67 0.00139 7.01 0.00156 4.88 0.00981 9.75 0.0233 14.6 0.0171 6.26 0.0208 12.5 0.0201 18.8 2.71e-4 4.81 0.00574 9.63 0.013 14.4 0.00319 2.31 0.00515 4.62 0.00589 6.93 0.00216 3.21 0.0109 6.43 0.0216 9.64-4.53e-4 0.959-9.06e-4 1.92-0.00137 2.91 0.0064 1.31 0.0064 1.31 0.0129 2.64 0.00168 0.759 0.00335 1.52 0.00508 2.3 0.0156 1.95 0.0156 1.95 1.13 3.86 0.138 1.33 0.225 2.66 0.281 3.99 0.0374 0.788 0.0748 1.58 0.113 2.39 0.0348 0.824 0.0696 1.65 0.105 2.5 0.0692 1.62 0.142 3.24 0.219 4.87 0.0303 0.72 0.0606 1.44 0.0918 2.18 0.193 2.12 0.643 4.02 1.19 6.07 1.16 7.43 1.99 14.9 2.89 22.4 0.128 1.04 0.255 2.07 0.387 3.14 0.114 0.935 0.228 1.87 0.346 2.83 0.539 3.84 1.32 7.49 2.37 11.2 1.16 4.5 1.41 8.98 1.66 13.6 0.357 2.94 1.22 5.11 2.34 7.83 0.406 1.97 0.758 3.95 1.06 5.94l0.473 3.03c0.314 2.05 0.625 4.1 0.934 6.15 0.465 2.53 1.08 4.73 1.97 7.14 1.98 5.71 2.99 11.5 4.05 17.5 0.286 2.22 0.286 2.22 1.51 3.27 0.839 6.15 0.325 10.8-3.3 15.9-3.4 4.18-6.81 8.36-10.7 12.1h-2c-0.33 0.99-0.66 1.98-1 3-2.25 2.49-4.15 4.59-7.19 6.06-1.96 0.785-1.96 0.785-2.69 2.75-1.35 2.62-3.2 3.96-5.48 5.77-2.34 2.02-4.23 4.35-6.21 6.72-2.68 3.16-5.52 6-8.81 8.51-2.96 2.46-5.3 5.18-7.8 8.1-2.79 3.18-5.81 6.12-8.83 9.09-1.67 1.67-3.33 3.33-5 5-9 9-18 18-27 27-0.888 0.9-1.78 1.8-2.69 2.73-2.31 2.27-2.31 2.27-4.75 4.15-2.72 2.26-4.83 4.69-7.09 7.39-2.69 3.17-5.54 6.02-8.85 8.55-2.14 1.79-3.72 3.39-5.5 5.5-5.43 6.37-11.5 12.1-17.4 18-2.24 2.21-4.46 4.44-6.68 6.67-3.67 3.67-7.33 7.33-11 11-0.897 0.938-1.79 1.88-2.72 2.84-2.28 2.16-2.28 2.16-4.28 2.16-0.227 0.557-0.454 1.11-0.688 1.69-1.69 2.97-3.84 4.96-6.31 7.31-0.825 0.825-1.65 1.65-2.5 2.5-4.17 4.17-8.33 8.33-12.5 12.5-0.763 0.825-1.53 1.65-2.31 2.5-7.34 6.82-13.5 8.56-23.3 8.73-2.61-0.25-4.2-0.831-6.4-2.23-0.33-0.66-0.66-1.32-1-2-0.742-0.227-1.48-0.454-2.25-0.688-3.85-1.84-5.65-4.68-7.75-8.31-1.07-3.21-1.27-5.75-1.38-9.12-0.049-1.08-0.098-2.15-0.148-3.26 1.49-10.3 9.28-16.9 16.4-23.8 0.979-0.967 1.96-1.94 2.93-2.9 3.98-3.92 7.97-7.8 12.2-11.4 2.73-2.32 4.73-4.71 6.95-7.5h2l0.75-1.69c2.84-5.25 6.87-8.85 11.4-12.7 2.03-1.72 2.03-1.72 4.27-4.09 1.62-1.56 1.62-1.56 3.62-1.56 0.0965-0.598 0.193-1.2 0.292-1.81 0.864-2.67 1.84-3.46 4.03-5.2 3.58-3 6.95-6.15 10.2-9.47 0.75-0.754 0.75-0.754 1.51-1.52 1.05-1.06 2.11-2.12 3.16-3.19 1.67-1.69 3.34-3.37 5.02-5.06 4.76-4.78 9.5-9.57 14.3-14.4 2.92-2.94 5.84-5.88 8.76-8.82 1.11-1.12 2.22-2.24 3.33-3.36 1.54-1.56 3.08-3.11 4.63-4.66 0.877-0.885 1.75-1.77 2.66-2.68 2.12-1.89 2.12-1.89 4.12-1.89 0.347-0.834 0.347-0.834 0.7-1.68 1.65-2.94 3.71-4.97 6.1-7.36 0.486-0.488 0.973-0.977 1.47-1.48 1.61-1.61 3.22-3.21 4.83-4.82 1.12-1.12 2.25-2.25 3.37-3.37 2.36-2.36 4.72-4.71 7.08-7.06 3.01-3 6.02-6 9.02-9 2.32-2.32 4.65-4.64 6.97-6.96 1.11-1.11 2.22-2.21 3.32-3.32 9.71-9.7 9.71-9.7 14.3-13.5 2.93-2.1 2.93-2.1 3.6-4.77-0.404-5.6-1.4-10.8-2.87-16.2-3.05-11.4-5.29-22.9-6.97-34.5-0.24-3.78-0.24-3.78-1.95-6.93-0.423-2.81-0.79-5.61-1.12-8.43-0.105-0.866-0.21-1.73-0.318-2.62-0.337-2.79-0.668-5.59-0.999-8.38-0.219-1.82-0.438-3.64-0.658-5.46-0.544-4.51-1.08-9.03-1.6-13.5-0.282-2.4-0.574-4.79-0.868-7.18-1.38-11.5-2.07-23-2.56-34.5-0.0625-1.44-0.0625-1.44-0.126-2.91-1.11-25.8-0.878-51.5 0.189-77.3 0.0434-1.06 0.0868-2.13 0.131-3.22 0.126-3.02 0.259-6.04 0.396-9.05 0.0386-0.916 0.0772-1.83 0.117-2.78 0.0399-0.839 0.0799-1.68 0.121-2.54 0.0333-0.734 0.0666-1.47 0.101-2.22 0.196-1.81 0.196-1.81 1.2-3.81 0.284-2.52 0.519-5.03 0.719-7.56 0.0942-1.12 0.0942-1.12 0.19-2.26 0.201-2.39 0.397-4.78 0.591-7.17 0.256-3.15 0.517-6.29 0.781-9.44 0.0573-0.727 0.115-1.45 0.174-2.2 0.432-5.13 0.432-5.13 1.55-7.36 0.277-1.72 0.51-3.46 0.719-5.19 0.128-1.03 0.255-2.05 0.387-3.11 0.263-2.18 0.527-4.35 0.789-6.53 0.128-1.03 0.255-2.05 0.387-3.11 0.114-0.946 0.228-1.89 0.346-2.87 0.373-2.19 0.373-2.19 1.37-3.19 0.32-1.46 0.587-2.94 0.832-4.42 0.157-0.918 0.313-1.84 0.475-2.78 0.25-1.48 0.25-1.48 0.506-2.99 1.34-7.66 2.91-15 5.19-22.5 1.11-3.73 2.03-7.5 2.93-11.3 1.74-7.12 3.91-14 6.33-21 0.813-2.34 1.6-4.69 2.4-7.03 3.28-9.64 6.86-18.9 11.3-28.1 0.673-1.43 1.34-2.86 2.01-4.29 3.25-6.95 6.54-13.9 9.99-20.7h2c0.186-0.784 0.371-1.57 0.562-2.38 1.68-4.24 4.03-7.48 6.7-11.2 1.48-2.09 2.77-4.16 3.99-6.41 1.51-2.65 2.66-3.98 4.75-6.06 1.09-1.48 2.15-2.98 3.19-4.5 3.25-4.72 6.61-9.35 10-14 1.85-2.53 1.85-2.53 3.41-5.37 0.459-0.718 0.918-1.44 1.39-2.18h2c0.186-0.66 0.371-1.32 0.562-2 3.12-6.5 8.21-11.5 14.4-15 5.82-1.94 12.1-2.13 17.9 0.129z" fill="#06070A"></path>
<path transform="translate(1383,507)" d="m0 0h2c0.95 3.7 0.95 6.3 0 10-4.45-0.99-4.45-0.99-9-2 1.75-4.88 1.75-4.88 4-6v2h2c0.33-1.32 0.66-2.64 1-4z" fill="#FBFDFF"></path>
</svg><style>@media (prefers-color-scheme: light) { :root { filter: contrast(1) brightness(1); } }
</style></svg>