<svg xmlns="http://www.w3.org/2000/svg" version="1.1" xmlns:xlink="http://www.w3.org/1999/xlink" xmlns:svgjs="http://svgjs.com/svgjs" width="1280" height="1280"><svg version="1.1" viewBox="0 0 1576 1600" width="1280" height="1280" xmlns="http://www.w3.org/2000/svg">
<path transform="translate(1179 42.3)" d="m0 0c2.48 2.2 4.89 4.44 7.28 6.73 0.866 0.804 1.73 1.61 2.62 2.44 14 15.1 23 32.8 24.7 53.4 0.327 5.42 0.327 5.42 2.68 10.1 1.75 1.1 1.75 1.1 4 1 2.9-1.14 2.9-1.14 5.94-2.94 0.866-0.479 0.866-0.479 1.75-0.967 2.81-1.58 5.5-3.22 8.18-5.03 19-12.8 43.3-19.2 65.9-19.3 1.22-0.0122 2.44-0.0245 3.7-0.0371 10.1-0.0163 19 1.32 28.4 4.97 0.686 0.264 1.37 0.528 2.08 0.8 10.7 4.22 19.4 9.78 28 17.5 0.908 0.801 1.82 1.6 2.75 2.43 17.1 16 26.4 36.7 27.6 60 0.781 26.7-6.36 50.5-20.3 73.1-2.69 4.48-3.82 7.26-3 12.4 4.68 1.77 9.18 2.47 14.1 2.94 23.7 2.61 45.5 13.6 60.6 32.5 15.8 21.4 20.7 43.4 19.2 69.6-0.0667 1.23-0.0667 1.23-0.135 2.48-1.93 27.4-17 56.1-34.9 76.5-1.2 1.51-2.38 3.03-3.56 4.56-0.843 1.08-0.843 1.08-1.7 2.19-1.23 1.6-2.45 3.2-3.66 4.81-0.624 0.825-1.25 1.65-1.89 2.5-0.563 0.754-1.13 1.51-1.71 2.29-0.733 0.818-0.733 0.818-1.48 1.65h-2c-0.381 0.874-0.381 0.874-0.77 1.77-1.36 2.48-2.87 4.04-4.92 5.98-2.59 2.47-5 5.03-7.32 7.75-4.59 5.29-9.54 10.2-14.5 15.1-1.63 1.62-3.24 3.24-4.86 4.87-1.05 1.04-2.09 2.09-3.14 3.13-0.477 0.479-0.954 0.958-1.45 1.45-2.19 2.17-4.39 4.18-6.81 6.09-2.63 2.13-3.37 3.57-4.24 6.82-0.0269 1.67-0.0306 3.33 0 5 1.25 0.208 2.49 0.415 3.78 0.629 27.7 4.9 49.7 17.1 66.8 39.9 14.8 21.9 18.4 47.5 13.9 73.3-6.67 30.3-23.7 59.7-44.8 82.2-2.4 2.66-4.44 5.54-6.49 8.47-0.405 0.473-0.81 0.946-1.23 1.43h-2c-0.276 0.592-0.552 1.18-0.836 1.79-3.12 5.92-8.2 10.2-13.2 14.5-1.83 1.65-3.37 3.35-4.94 5.25-2.72 3.32-5.8 5.98-9.06 8.75-1.83 1.65-3.37 3.35-4.94 5.25-2.75 3.34-5.84 6.08-9.13 8.89-2.42 2.09-4.64 4.33-6.87 6.61-0.996 0.98-0.996 0.98-2.01 1.98-0.718 0.708-1.44 1.42-2.18 2.14-1.01 0.994-1.01 0.994-2.04 2.01-1.95 1.95-1.95 1.95-3.77 4.87h-2v2c-1.33 1.31-1.33 1.31-3.25 2.88-5.89 5.01-11.3 10.5-16.7 16-1.14 1.14-2.28 2.29-3.43 3.43-2.99 2.99-5.97 5.99-8.96 8.98-3.03 3.04-6.07 6.08-9.1 9.12-5.34 5.35-10.7 10.7-16 16.1-0.832 0.834-1.66 1.67-2.52 2.53-0.868 0.886-1.74 1.77-2.63 2.69-5.24 5.12-9.85 7.45-17.1 7.63-6.65-0.0801-10.2-1.21-15-6.07-3.71-4.19-5.44-6.74-5.59-12.4-0.0561-1.38-0.0561-1.38-0.113-2.79 1.01-7.14 6.01-12.1 10.8-17.1 0.552-0.594 1.1-1.19 1.67-1.8 2.61-2.77 5.24-5.38 8.19-7.79 2.2-1.82 3.9-3.43 5.64-5.66 2.82-3.42 5.98-6.22 9.39-9.05 1.96-1.66 1.96-1.66 3.73-4.58h2c0.33-0.99 0.66-1.98 1-3 1.6-1.54 1.6-1.54 3.62-3.19 3.62-3.06 6.65-6.34 9.7-9.95 2.34-2.6 4.96-4.66 7.67-6.86 0.33-0.66 0.66-1.32 1-2h2l0.781-1.81c1.32-2.37 2.61-3.58 4.72-5.25 2.44-1.95 3.72-3.27 5.5-5.94h2c0.247-0.572 0.495-1.14 0.75-1.73 1.44-2.62 3.13-4.41 5.25-6.52 0.701-0.706 1.4-1.41 2.12-2.14 1.88-1.61 1.88-1.61 3.88-1.61 0.33-0.99 0.66-1.98 1-3h2c0.206-0.536 0.412-1.07 0.625-1.62 1.91-3.29 4.42-5.97 7.38-8.38h2c0.211-0.538 0.421-1.08 0.638-1.63 1.88-3.27 4.47-5.68 7.15-8.28 0.863-0.851 0.863-0.851 1.74-1.72 2.45-2.42 4.91-4.82 7.37-7.22 7.55-7.4 14.5-14.8 21.1-23.1 1.07-1.25 2.15-2.5 3.23-3.73 19.8-22.9 32-50.1 30-80.6-1.27-13.2-8.72-23.2-18.6-31.6-13.3-10.1-27.3-11.7-43.5-9.54-7.86 1.53-15 4.04-22.2 7.5-0.627 0.301-1.25 0.603-1.9 0.914-17.1 8.34-32 19.4-46.1 32.1-0.743 0.661-1.49 1.32-2.25 2-10 9.02-19.5 18.6-29 28.1-2.47 2.48-4.95 4.96-7.42 7.43-4.67 4.68-9.35 9.36-14 14-5.3 5.32-10.6 10.6-15.9 15.9-9.07 9.08-18.1 18.2-27.2 27.3-0.747 0.748-1.49 1.5-2.26 2.27-0.685 0.688-1.37 1.38-2.08 2.08-1.15 1.15-2.31 2.3-3.47 3.43-2.52 2.46-2.52 2.46-4.39 5.43 0.213 6.61 1.89 11.5 4.54 17.5 11.3 27.1 14.7 54.9 14.6 84.1-0.00282 1.26-0.00282 1.26-0.00571 2.55-0.0332 12.7-0.0994 25.3-1.12 37.9-0.0756 0.983-0.151 1.97-0.229 2.98-1.32 16.3-4.24 31.9-8.05 47.7-4.92 16.2-4.92 16.2-4.72 32.3 4.5 4.45 9.83 7.4 15.3 10.5 0.804 0.46 1.61 0.92 2.44 1.39 3.95 2.26 7.93 4.48 11.9 6.66 3.89 2.16 7.59 4.5 11.3 7 1.29 0.873 2.59 1.75 3.88 2.62 0.674 0.456 1.35 0.912 2.04 1.38 2.26 1.52 4.52 3.01 6.79 4.51 14.1 9.33 14.1 9.33 20.2 14.2 2.68 2.14 5.44 4.17 8.2 6.21 4.86 3.63 9.44 7.44 13.9 11.5 1.23 1.06 2.46 2.13 3.69 3.19 9.32 8.19 18.3 16.7 27.1 25.4 1.41 1.4 2.83 2.8 4.25 4.2 6.09 6.08 11.6 12.4 17 19.2 1.48 1.79 2.96 3.59 4.44 5.38 7.59 9.31 14.8 18.8 21.6 28.7 0.564 0.822 1.13 1.64 1.71 2.49 4.06 5.97 4.06 5.97 5.35 8.64 1.26 2.44 2.41 2.75 4.94 3.81 1.09 0.549 2.17 1.1 3.29 1.66 1.3 0.654 2.6 1.31 3.89 1.96 0.703 0.354 1.41 0.708 2.13 1.07 4.27 2.14 8.57 4.18 12.9 6.16 20.1 9.21 38.7 21.4 56.8 34.1 1.98 1.39 3.98 2.76 5.98 4.12 0.92 0.625 1.84 1.25 2.79 1.89 0.811 0.545 1.62 1.09 2.46 1.65 0.857 0.698 0.857 0.698 1.73 1.41v2c0.57 0.26 1.14 0.521 1.73 0.789 7.99 4.26 14.8 11.3 21.6 17.3 3.12 2.77 3.12 2.77 6.65 4.95v2c0.568 0.24 1.14 0.48 1.72 0.727 2.74 1.53 4.54 3.38 6.71 5.65 2.34 2.4 4.55 4.62 7.19 6.69 2.89 2.36 5.15 5.04 7.56 7.88 1.66 1.89 3.38 3.63 5.19 5.38 3.7 3.65 6.92 7.62 10.2 11.7 2.15 2.64 4.33 5.24 6.55 7.82 5.59 6.53 10.9 13.2 15.9 20.2 0.593 0.807 1.19 1.61 1.8 2.45 3.54 4.92 6.79 10 9.95 15.2 0.377 0.609 0.754 1.22 1.14 1.85 3.66 6.1 7.02 12.3 5.68 19.6-1.85 6.3-5.32 10.2-10.6 13.9-5.89 1.96-12.6 2.02-18.3-0.562-6.99-4.22-11.2-11.5-15.6-18.2-4.53-6.89-9.16-13.7-14.1-20.2-0.394-0.53-0.789-1.06-1.19-1.6-4.42-5.93-8.82-11.7-14.2-16.8-2.73-2.65-5.38-5.47-7.61-8.56v-2h-2v-2c-0.99-0.33-1.98-0.66-3-1v-2h-2c-1.44-1.5-1.44-1.5-3-3.44-2.15-2.71-2.15-2.71-5-4.56v-2c-0.593-0.264-1.19-0.529-1.8-0.801-2.28-1.24-3.68-2.5-5.45-4.39-6.14-6.3-12.8-11.7-19.8-17.1-3.23-2.46-6.4-4.97-9.53-7.57-9.99-8.04-20.9-15.4-32-21.8-2.33-1.35-4.64-2.74-6.94-4.14-5.4-3.24-10.9-6.33-16.4-9.35-1.53-0.835-1.53-0.835-3.09-1.69-8.9-4.78-18-9.04-27.3-13.1-9.01-3.99-14.7-8.17-20.2-16.4-0.703-1.05-1.41-2.1-2.13-3.18-0.771-1.17-1.54-2.34-2.31-3.51-9.99-15.2-20.6-31.1-33.8-43.8-1.17-1.25-1.17-1.25-1.17-3.25h-2c-1.55-1.57-1.55-1.57-3.31-3.69-2.12-2.51-4.24-4.92-6.62-7.19-2.06-2.12-2.06-2.12-2.06-4.12h-2c-1.72-1.62-3.37-3.29-5-5-6.56-6.73-13.1-13.1-20.5-19-2.22-1.78-4.34-3.61-6.45-5.51-15.5-13.6-33.4-24.9-50.7-36-2.13-1.37-4.25-2.76-6.36-4.16-8.62-5.64-17.6-10.2-26.9-14.5-15.8-7.29-15.8-7.29-19-12.6-0.38-0.593-0.761-1.19-1.15-1.8-2.86-7.7-1.63-14.8 0.0898-22.6 0.223-1.07 0.447-2.14 0.677-3.24 1.84-8.68 3.9-17.3 5.95-25.9 3.96-16.7 6.48-33.1 7.95-50.2 0.284-3.2 0.784-6.26 1.43-9.41 5.25-54-3.92-103-37.7-146-2.03-2.61-4.02-5.24-6.01-7.87-9.93-12.9-20.4-25.2-31.7-37.1-2.37-2.52-4.66-5.11-6.96-7.69-3.43-3.79-6.98-7.23-10.9-10.5-2.38-2.03-4.53-4.27-6.73-6.48-1.87-1.58-3.74-3.13-5.64-4.67-0.447-0.44-0.895-0.879-1.36-1.33v-2c-0.594-0.276-1.19-0.552-1.8-0.836-2.08-1.1-3.65-2.24-5.42-3.78-22.3-19.7-22.3-19.7-49.7-27.9-15 3.85-25.8 15.1-34.1 27.5-2.87 5.1-4.59 11.2-3 17 1.9 2.64 3.93 4.87 6.25 7.15 1.75 1.85 1.75 1.85 1.75 3.85 0.59 0.264 1.18 0.527 1.79 0.799 2.31 1.25 3.79 2.55 5.63 4.42 0.648 0.655 1.3 1.31 1.96 1.98 0.692 0.708 1.38 1.42 2.1 2.15 1.09 1.1 1.09 1.1 2.2 2.22 3.1 3.13 6.18 6.27 9.26 9.41 11.9 12.2 11.9 12.2 25.1 23 1.59 1.29 3.17 2.58 4.75 3.88 5.65 4.52 11.5 8.68 17.4 12.8 1.77 1.25 3.53 2.52 5.29 3.79 10 7.23 20.2 14.1 30.7 20.8 0.887 0.566 1.77 1.13 2.69 1.72 1.73 1.1 3.46 2.2 5.2 3.28 6.38 4.07 12.9 8.53 16 15.7 0.643 5.79 0.85 11.2-1.62 16.5-4.82 5.07-9.09 9.23-16.4 9.6-10.2-0.473-18.7-7.42-26.8-13-2.73-1.84-5.49-3.63-8.28-5.39-7.23-4.58-14.2-9.45-21.1-14.5-2.33-1.68-4.66-3.35-7-5.02-1.16-0.829-2.32-1.66-3.49-2.49-2.98-2.13-5.97-4.26-8.97-6.36-5.78-4.07-11.4-8.15-16.7-12.9-1.48-1.33-3.05-2.56-4.62-3.78-0.66-0.557-1.32-1.11-2-1.69v-2c-0.581-0.266-1.16-0.531-1.76-0.805-6.3-3.36-11-8.98-15.6-14.4-1.77-2.06-1.77-2.06-4.65-4.34-3.17-2.64-5.66-5.5-8.32-8.64-2.02-2.24-4.32-4-6.68-5.86v-2h-2c-1.25-1.48-2.5-2.96-3.68-4.49-1.43-1.78-1.43-1.78-4.32-3.51v-2c-0.99-0.33-1.98-0.66-3-1-1.65-1.71-1.65-1.71-3.38-3.81-2.65-3.15-5.39-5.64-8.62-8.19v-2h-2c-1.55-1.57-1.55-1.57-3.31-3.69-2.77-3.26-5.62-6.32-8.69-9.31-0.545-0.556-1.09-1.11-1.65-1.68-2.72-2.76-5.4-5.36-8.41-7.82-2.92-2.49-5.24-5.08-7.64-8.05-1.25-1.59-1.25-1.59-3.3-2.45v-2c-0.99-0.33-1.98-0.66-3-1-1.65-1.71-1.65-1.71-3.38-3.81-2.65-3.15-5.39-5.64-8.62-8.19v-2h-2c-1.55-1.57-1.55-1.57-3.31-3.69-2.77-3.26-5.62-6.32-8.69-9.31-0.654-0.664-1.31-1.33-1.98-2.01-0.708-0.718-1.42-1.44-2.14-2.18l-2.01-2.04c-1.95-1.95-1.95-1.95-4.87-3.77v-2h-2c-0.585-0.757-1.17-1.51-1.77-2.29-4.16-5.06-10.5-7.9-16.8-9.26-11.3-0.621-20.3 5.62-28.4 12.8-8.97 8.23-18 17.9-19.3 30.5-0.416 12.2 4.8 18 12.8 26.7 6.89 7.31 14.1 14.4 21.2 21.5 1.7 1.7 3.4 3.39 5.1 5.09 4.44 4.43 8.88 8.86 13.3 13.3 4.52 4.51 9.05 9.03 13.6 13.5 7.29 7.29 14.6 14.6 21.9 21.8 1.24 1.24 2.49 2.48 3.73 3.73 1.05 1.05 2.1 2.1 3.16 3.15 12.5 12.4 12.5 12.4 12.8 21.4-0.147 6.59-2.73 11.4-7.31 16.1-5.77 3.42-11.4 3.86-18 3-7.02-2.24-12.4-7-17-12.5-4.51-5.18-9.35-10-14.2-14.9-1.02-1.02-2.03-2.04-3.05-3.06-2.74-2.75-5.48-5.49-8.22-8.23-1.72-1.72-3.43-3.43-5.14-5.15-5.99-6-12-12-18-18-5.58-5.58-11.1-11.2-16.7-16.7-4.79-4.81-9.59-9.61-14.4-14.4-2.86-2.86-5.72-5.72-8.58-8.59-2.68-2.69-5.37-5.38-8.06-8.07-0.985-0.983-1.97-1.97-2.95-2.96-10.8-11-10.8-11-25.4-14.8-9.23 0.222-16.4 4.56-23.2 10.4-1.1 0.897-1.1 0.897-2.21 1.81-8.62 7.31-18.6 17.3-19.8 29.2-0.584 7.43 0.00901 14.2 4.78 20.2 5.91 6.43 12 12.7 18.2 18.8 1.07 1.07 2.14 2.13 3.21 3.2 2.28 2.28 4.56 4.55 6.85 6.83 3.61 3.6 7.22 7.2 10.8 10.8 7.65 7.64 15.3 15.3 23 22.9 8.29 8.26 16.6 16.5 24.9 24.8 3.59 3.58 7.17 7.16 10.8 10.7 2.23 2.22 4.46 4.45 6.69 6.67 1.03 1.03 2.06 2.06 3.1 3.08 1.41 1.41 2.82 2.81 4.23 4.22 0.788 0.786 1.58 1.57 2.39 2.38 4.88 5.15 8.1 9.34 8.2 16.7-0.365 5.87-1.53 9.84-5.04 14.6-6.48 5.03-12 5.75-20 5-7.18-1.93-13-7.72-18-13v-2h-2v-2h-2v-2c-0.585-0.246-1.17-0.492-1.77-0.746-2.57-1.45-3.98-3.05-5.85-5.32-2.33-2.92-2.33-2.92-5.38-4.94v-2c-0.581-0.241-1.16-0.482-1.76-0.73-2.66-1.51-4.11-3.23-6.05-5.58-2.42-2.82-4.62-5.18-7.75-7.19-3.74-2.45-5.97-5.65-8.61-9.22-2.39-2.98-5.1-5.35-8.04-7.77-1.71-1.43-3.32-2.84-4.8-4.51v-2h-2v-2l-1.79-0.797c-4.81-2.61-8.44-7.17-11.8-11.4-2.22-2.82-2.22-2.82-4.75-4.69-2.29-1.85-3.93-3.58-5.81-5.81-7.22-8.44-13.9-15.4-25.2-16.3-12.3-0.167-22.2 8.01-30.7 16-3.34 3.18-3.34 3.18-5.84 7h-2c-0.276 0.723-0.552 1.45-0.836 2.19-1.16 2.81-1.16 2.81-2.45 5.21-3.95 7.49-4.94 14.2-3.71 22.6 2.92 8.64 8.3 14.5 15.1 20.4 2.08 1.79 4.08 3.59 5.91 5.64v2c0.865 0.377 0.865 0.377 1.75 0.761 2.55 1.4 4.25 2.99 6.3 5.06 0.784 0.785 1.57 1.57 2.38 2.38 0.839 0.849 1.68 1.7 2.54 2.57 0.87 0.873 1.74 1.75 2.64 2.65 2.31 2.32 4.62 4.65 6.92 6.97 2.33 2.35 4.67 4.7 7.01 7.05 3.43 3.45 6.86 6.9 10.3 10.4 3.05 3.08 6.11 6.15 9.18 9.21 41 41 41 41 43.1 43.1 1.48 1.46 3 2.88 4.54 4.27 4.53 5 9.52 11.6 9.38 18.6-1.53 7.84-5.25 13.3-11.7 17.9-6.13 1.96-11.9 2.04-17.9-0.375-9.08-6.16-16.8-14.7-24.5-22.5-1.64-1.65-3.29-3.29-4.94-4.93-8.74-8.74-8.74-8.74-12.5-13.2-5.46-6.39-11.6-12.2-17.6-18-1.63-1.6-3.25-3.2-4.87-4.8-0.503-0.49-1.01-0.979-1.52-1.48-1.2-1.19-2.34-2.43-3.48-3.68v-2c-0.591-0.258-1.18-0.517-1.79-0.783-2.39-1.31-3.76-2.67-5.57-4.69-0.623-0.67-1.25-1.34-1.89-2.03-1.29-1.41-2.57-2.83-3.83-4.26-3.27-3.47-5.61-5.71-10.5-5.98-4.52 0.407-7.61 2.31-11 5.24-0.832 0.689-0.832 0.689-1.68 1.39-1.61 1.35-3.18 2.72-4.76 4.11l-2.36 1.95c-7.5 6.7-12.7 15.9-13.4 26-0.139 8.94 2.54 16.2 6.78 24l1.39 2.72c3.47 6.08 7.99 11 12.8 16 0.704 0.743 1.41 1.49 2.13 2.25 7.85 8.26 15.9 16.3 23.9 24.4 1.66 1.67 3.32 3.33 4.98 5 5.38 5.4 10.8 10.8 16.1 16.2 1.87 1.87 3.74 3.75 5.61 5.62 7.78 7.8 15.6 15.6 23.3 23.4 2 2.01 4.01 4.01 6.01 6.02 0.747 0.748 0.747 0.748 1.51 1.51 8.07 8.08 16.1 16.2 24.2 24.3 8.33 8.36 16.7 16.7 25 25.1 4.66 4.67 9.32 9.34 14 14 4.38 4.4 8.76 8.79 13.2 13.2 1.6 1.6 3.19 3.2 4.78 4.8 24.1 24.3 51.5 43.2 85 51.6 0.768 0.195 1.54 0.389 2.33 0.59 26 6.28 57 6.09 82.8-0.66 6.18-1.5 12.4-2.34 18.4 0.133 8.83 5.42 12.4 14.7 16.6 23.8 9.28 19.7 19.6 38.2 31.8 56.2 0.587 0.866 0.587 0.866 1.19 1.75 7.54 11.1 15.4 21.8 24.2 31.9 2.22 2.55 4.42 5.11 6.53 7.76 5.68 7.13 11.8 13.6 18.3 20 1.69 1.68 3.37 3.37 5.05 5.06 6.61 6.62 13.4 12.7 20.8 18.5 1.03 0.851 2.07 1.71 3.09 2.57 8.65 7.17 17.7 13.6 27 20 0.686 0.472 1.37 0.944 2.08 1.43 2.97 2.04 5.94 4.06 8.93 6.05 0.864 0.583 1.73 1.17 2.62 1.77 0.726 0.481 1.45 0.962 2.2 1.46 5.3 4.34 8.41 9.67 11.5 15.7 0.386 0.741 0.773 1.48 1.17 2.24 2.82 5.46 5.44 11 8.01 16.6 8.93 19.4 20.6 38.3 33.4 55.2 0.966 1.3 1.93 2.6 2.89 3.89 5.85 7.86 11.8 15.6 18.1 23.1 0.464 0.554 0.928 1.11 1.41 1.68 6.24 7.44 12.6 14.6 19.6 21.3 2.6 2.58 5.17 5.18 7.73 7.8 6.42 6.56 13.1 12.5 20.3 18.2 1.19 0.967 2.38 1.94 3.57 2.91 9.68 7.88 19.6 15.1 30.2 21.7 16.3 10.4 16.3 10.4 20.2 19.4 1.15 5.37 0.579 9.63-2.19 14.4-3.35 4.68-7.19 8.09-12.8 9.62-13.7 2.12-25.5-7.56-36-15-0.91-0.638-0.91-0.638-1.84-1.29-4.08-2.86-8.13-5.77-12.2-8.71-0.543-0.396-1.09-0.792-1.65-1.2-5.83-4.27-11.5-8.62-16.8-13.5-1.51-1.41-1.51-1.41-3.52-2.31v-2c-0.593-0.264-1.19-0.529-1.8-0.801-2.28-1.24-3.68-2.5-5.45-4.39-2.48-2.57-5.02-4.95-7.75-7.25-3.32-2.87-6.18-5.91-9.01-9.25-2.48-2.89-5.04-5.69-7.61-8.5-0.455-0.499-0.911-0.998-1.38-1.51-2.92-3.18-5.94-6.25-8.99-9.3-19.3-20.6-35.6-44.8-50-69-0.505-0.835-1.01-1.67-1.53-2.53-0.505-0.835-1.01-1.67-1.53-2.53-0.445-0.733-0.889-1.47-1.35-2.22-4.49-7.67-8.62-15.5-12.7-23.4-0.787-1.51-0.787-1.51-1.59-3.05-0.509-0.978-1.02-1.96-1.54-2.96-0.729-1.39-0.729-1.39-1.47-2.81-0.984-1.93-1.89-3.9-2.76-5.88-3.41-5.89-10.1-9.49-15.6-13.3-6.42-4.49-12.7-9.11-18.9-13.9-4.09-3.17-8.25-6.22-12.4-9.28-2.78-2.2-5.18-4.57-7.66-7.11-2.12-2.02-4.28-4.01-6.44-6-0.547-0.508-1.09-1.02-1.66-1.54-2.57-2.37-5.14-4.65-7.88-6.84-3.1-2.55-5.63-5.5-8.23-8.55-2.31-2.67-4.75-5.21-7.19-7.76-7.41-7.75-14.1-15.8-20.6-24.3-1.35-1.69-2.7-3.38-4.06-5.06-1.31-1.64-2.63-3.29-3.94-4.94-0.791-0.994-1.58-1.99-2.4-3.01-5.27-6.69-10-13.6-14.6-20.8-1.7-2.71-3.44-5.38-5.21-8.04-0.46-0.688-0.92-1.38-1.39-2.09-1.03-1.53-2.07-3.06-3.12-4.58-0.553-0.812-1.11-1.62-1.68-2.46-0.503-0.731-1.01-1.46-1.52-2.21-1.1-1.85-1.1-1.85-1.1-3.85-4.02-0.985-4.02-0.985-7.99-0.293-2.44 1.57-3.75 3.27-5.45 5.61-2.61 3.56-5.4 6.61-8.56 9.69-2.25 2.23-4.5 4.46-6.75 6.69l-1.79 1.76c-3.11 2.98-3.11 2.98-5.46 6.55h-2c-0.268 0.639-0.536 1.28-0.812 1.94-1.19 2.06-1.19 2.06-4.19 3.06v2c-1.63 1.73-3.29 3.36-5 5-1.31 1.32-2.62 2.64-3.93 3.96-1.46 1.47-2.92 2.94-4.39 4.41-0.721 0.73-1.44 1.46-2.19 2.21-6.93 6.96-14.2 13.3-21.9 19.4-1.65 1.32-3.3 2.65-4.92 4-6.28 5.19-12.9 9.53-19.8 13.8-2.06 1.32-4.07 2.69-6.09 4.06-5.13 3.43-10.4 6.48-15.8 9.5-1.51 0.849-1.51 0.849-3.05 1.71-11.1 6.18-22.3 11.8-33.9 16.9-0.865 0.386-1.73 0.773-2.62 1.17-13.3 5.9-26.6 11.1-40.4 15.7-1 0.334-1 0.334-2.02 0.675-16.1 5.35-32.4 9.69-49 13.6-2.47 0.581-4.94 1.17-7.42 1.76-10.5 2.48-20.9 4.79-31.6 6.01-4.97 0.582-9.92 1.25-14.9 2.04-12.7 2-25.4 3.6-38.2 4.71-0.705 0.062-1.41 0.124-2.14 0.188-5.63 0.494-11.3 0.977-16.9 1.44-2.51 0.212-5.02 0.443-7.53 0.681l-3.91 0.34c-7.09 1.48-11.8 5.64-16.8 10.7-0.593 0.59-1.19 1.18-1.8 1.79-1.97 1.97-3.94 3.94-5.9 5.92-1.42 1.42-2.84 2.83-4.25 4.25-3.84 3.84-7.68 7.69-11.5 11.5-4.02 4.03-8.04 8.06-12.1 12.1-6.76 6.76-13.5 13.5-20.3 20.3-8.65 8.68-17.3 17.4-26 26-7.46 7.47-14.9 14.9-22.4 22.4-2.39 2.39-4.78 4.79-7.17 7.18-3.77 3.77-7.53 7.54-11.3 11.3-1.38 1.38-2.75 2.76-4.13 4.14-9.08 9.05-9.08 9.05-17.6 18.6-3.54 4.15-7.49 7.94-11.3 11.8-1.55 1.55-3.08 3.12-4.61 4.69-0.996 1-1.99 2-2.99 3.01-0.888 0.897-1.78 1.79-2.69 2.72-4.81 4.17-9.58 6.01-15.8 6.64-6.26-0.505-12.5-2.34-16.9-7.12-3.54-5.64-4.51-10.5-3.53-17 1.62-6.76 5.49-10.3 10.7-14.6 2.02-1.64 2.02-1.64 3.88-4.12 1.85-2.32 3.69-4.02 5.94-5.94 2.47-2.11 4.47-4.05 6.56-6.56 2.63-3.16 5.48-5.63 8.59-8.28 2.12-1.83 2.12-1.83 4.41-4.72 2.07-2.48 4-4.37 6.44-6.44 3.27-2.78 5.98-5.71 8.7-9.02 1.36-1.55 1.36-1.55 3.8-3.48 2.36-1.9 4.11-3.77 6.06-6.06 2.63-3.08 5.34-5.47 8.5-8 1.83-1.99 3.6-4.04 5.36-6.09 1.79-2.08 3.59-4.08 5.64-5.91h2c0.262-0.588 0.524-1.18 0.794-1.78 1.27-2.34 2.61-3.86 4.51-5.71 0.972-0.962 0.972-0.962 1.96-1.94 0.676-0.659 1.35-1.32 2.05-2 0.665-0.655 1.33-1.31 2.01-1.99 1.3-1.28 2.6-2.55 3.9-3.83 1.55-1.53 3.06-3.09 4.57-4.66 2.21-2.09 2.21-2.09 5.21-3.09 0.682-1.33 1.35-2.66 2-4 1.42-1.61 2.9-3.16 4.42-4.68 0.914-0.921 1.83-1.84 2.77-2.79 0.999-0.996 2-1.99 3-2.99 1.02-1.03 2.05-2.05 3.07-3.08 2.14-2.14 4.29-4.29 6.44-6.43 2.76-2.75 5.51-5.5 8.25-8.26 2.11-2.12 4.23-4.23 6.34-6.34 1.02-1.01 2.03-2.03 3.04-3.05 1.41-1.42 2.83-2.83 4.25-4.24 0.807-0.805 1.61-1.61 2.44-2.44 1.97-1.72 1.97-1.72 3.97-1.72l1-3h2c0.247-0.573 0.494-1.15 0.748-1.74 1.45-2.63 3.14-4.38 5.28-6.49l2.4-2.38 2.51-2.46 2.5-2.47c1.53-1.51 3.07-3.03 4.6-4.54 1.22-1.2 2.43-2.43 3.6-3.69 1.36-1.24 1.36-1.24 3.36-1.24l0.625-1.75c2.14-3.51 5.39-5.64 9.31-6.85 2.09-0.408 4.06-0.578 6.19-0.652 0.808-0.0304 1.62-0.0609 2.45-0.0923 0.871-0.029 1.74-0.058 2.64-0.0879 1.89-0.071 3.77-0.143 5.66-0.215 0.989-0.0369 1.98-0.0738 3-0.112 28.4-1.1 55.8-3.98 83.8-9.12 1.16-0.213 2.33-0.425 3.52-0.645 17.4-3.21 34.4-7.03 51.3-12.4 2.76-0.843 5.52-1.63 8.3-2.38 11.6-3.16 22.7-6.99 33.8-11.7 2.41-1.02 4.83-2.01 7.25-3 16.3-6.69 32.1-14 47.2-23 1.27-0.74 2.54-1.48 3.81-2.22 7.73-4.52 15.1-9.34 22.2-14.8 1.05-0.794 2.1-1.59 3.18-2.41 12.2-9.11 12.2-9.11 23.5-19.4 2.31-2.24 2.31-2.24 4.31-2.24v-2c1.62-1.71 3.3-3.37 5-5 1.06-1.1 2.13-2.21 3.19-3.31 2.81-2.69 2.81-2.69 4.81-2.69v-2c2.38-2.63 2.38-2.63 5-5h2c0.395-0.885 0.395-0.885 0.798-1.79 1.25-2.31 2.55-3.78 4.43-5.6 0.635-0.623 1.27-1.25 1.92-1.89 0.671-0.65 1.34-1.3 2.03-1.97 10.3-9.36 10.3-9.36 17.8-20.8-0.0586-2.72-0.0586-2.72-1-5-2.87-1.44-5.39-1.16-8.61-1.21-1.38-0.0253-2.76-0.0515-4.13-0.0784-0.725-0.0132-1.45-0.0264-2.2-0.0401-20.4-0.414-39.7-2.62-59.6-7.48-0.664-0.16-1.33-0.321-2.01-0.486-9.91-2.43-19.1-5.72-28.5-9.7-0.803-0.331-1.61-0.662-2.43-1-17-7.11-32.8-17.8-46.6-30-0.81-0.713-1.62-1.43-2.45-2.16-2.53-2.26-5.04-4.55-7.55-6.84-1.04-0.934-2.08-1.87-3.12-2.8-1.07-0.962-2.13-1.92-3.2-2.89l-2.93-2.64c-1.99-1.93-3.7-3.75-5.43-5.88-2.21-2.92-2.21-2.92-5.33-4.79v-2c-0.59-0.251-1.18-0.503-1.79-0.762-2.49-1.39-3.79-2.85-5.59-5.05-2.13-2.52-4.07-4.56-6.62-6.69-2.4-2-4.19-3.79-6.18-6.14-3.79-4.38-7.82-8.47-11.9-12.5-0.69-0.685-1.38-1.37-2.09-2.08-1.33-1.33-2.67-2.65-4-3.97-2.27-2.25-4.52-4.5-6.78-6.76-2.61-2.62-5.23-5.23-7.87-7.83-1-0.993-2.01-1.99-3.01-2.98-0.491-0.483-0.982-0.966-1.49-1.46-2.75-2.73-5.36-5.53-7.89-8.47-3.48-3.99-7.1-7.8-10.8-11.6-0.644-0.652-1.29-1.3-1.95-1.98-1.35-1.36-2.7-2.72-4.05-4.08-1.38-1.39-2.75-2.78-4.12-4.18-1.99-2.03-4-4.06-6.01-6.07-0.608-0.626-1.22-1.25-1.84-1.9-4.22-4.25-4.22-4.25-9.96-5.48-5.41 1.83-7.2 4.33-9.75 9.31-3.5 6.58-7.55 12.5-12 18.5-1.51 2.07-2.97 4.18-4.38 6.32-1.64 2.43-3.31 4.55-5.29 6.71-2.36 2.64-4.55 5.32-6.62 8.19-2.48 3.37-5.2 6.25-8.21 9.15-1.88 1.89-3.57 3.87-5.29 5.91-3.82 4.43-7.86 7.99-13.5 9.88-7.06 0.471-11.6-0.869-17.7-4.69-4.22-4.22-6.51-8.81-6.81-14.8 0.288-6.18 3.34-12 7.5-16.5h2c0.387-0.884 0.387-0.884 0.781-1.79 1.32-2.4 2.71-3.8 4.72-5.65 7.59-7.4 13.8-16.3 19.7-25 1.26-1.83 2.54-3.64 3.84-5.44 4.53-6.33 8.6-12.8 12.4-19.6 0.434-0.757 0.867-1.51 1.31-2.29 2.23-4.03 4.13-7.56 4.19-12.3-1.97-6.06-6.64-9.9-11.1-14.2-9.42-9.22-17.6-18.8-24.9-29.8-0.525-0.789-1.05-1.58-1.59-2.39-4.14-6.53-6.93-13.3-9.41-20.6l-0.977-2.69c-5.59-18-2.92-38.4 5.68-54.9 5.94-10.7 13.8-19.8 23.3-27.5 1.48-1.26 2.96-2.54 4.44-3.81l2-1.71c1.68-1.42 1.68-1.42 2.57-3.48 0-7.32-2.14-11.1-6.21-17.1-8.73-14.2-8.22-31.8-4.69-47.5 1.2-4.44 2.71-8.33 4.91-12.4 0.775-1.43 0.775-1.43 1.57-2.89 12.1-21.6 30-37.2 52-48.2 3.87-1.7 3.87-1.7 6.42-4.87 1.21-20.5-3.36-41.2-8-61-0.158-0.674-0.315-1.35-0.478-2.04-4.23-18-9.2-35.7-14.8-53.3-0.382-1.21-0.382-1.21-0.771-2.44-0.726-2.28-1.47-4.56-2.22-6.84-0.213-0.672-0.427-1.34-0.646-2.04-1.38-4.1-2.94-7.27-6.05-10.3-6.45-1.33-14.2 2.65-20.1 4.88-12.7 4.59-25.2 7.05-38.6 8.7-3.11 0.368-3.11 0.368-5.63 0.946-2.61 0.483-5 0.623-7.66 0.644-0.979 0.00961-1.96 0.0192-2.97 0.0291-1.05 0.00425-2.1 0.0085-3.18 0.0129-1.09 0.0057-2.19 0.0114-3.32 0.0173-2.32 0.00944-4.63 0.016-6.95 0.0198-3.51 0.00965-7.01 0.0407-10.5 0.0723-28.1 0.136-28.1 0.136-36.7-6.62-4.45-4.51-6.5-8.31-6.75-14.7 0.212-5.44 1.33-8.91 5.21-12.9 5.77-5.31 9.06-6.26 16.9-6.24l2.09 0.00146c4.25 0.0268 8.47 0.178 12.7 0.42 19.6 1.11 37.9-0.0955 57.1-4.11 1.13-0.236 2.27-0.472 3.43-0.715 10.8-2.41 21-6.24 30.9-11.2l2.02-1.02c6.77-3.5 12.9-7.67 19-12.2l2.82-2.1c4.44-3.43 8.25-6.88 11.8-11.2 1.52-1.76 3.13-3.17 4.93-4.65 2.42-1.99 4.45-4.02 6.44-6.44 2.77-3.36 5.88-6.07 9.19-8.88 2.58-2.32 4.66-5.02 6.88-7.69 1.11-0.979 2.23-1.94 3.38-2.88 3.24-2.7 5.94-5.64 8.67-8.84 10.6-12.3 10.6-12.3 15.2-16 2.82-2.31 4.94-4.77 7.25-7.57 1.5-1.68 1.5-1.68 4.43-4.12 2.52-2.11 4.45-4.08 6.56-6.56 2.9-3.41 6.05-6.13 9.5-9 1.19-1.32 2.35-2.65 3.5-4 2.9-3.41 6.05-6.13 9.5-9 1.82-2.02 3.58-4.09 5.35-6.16 2.01-2.24 4.3-3.96 6.65-5.84 1.79-1.91 3.49-3.88 5.18-5.88 1.15-1.34 2.33-2.67 3.54-3.96 7.25-7.81 13.1-17.4 17.3-27.2 0.275-0.634 0.549-1.27 0.832-1.92 4.51-11.8 4.63-24.7 3.17-37.1-0.0786-1.06-0.157-2.11-0.238-3.2-1.46-14.3-8.97-27.4-19.8-36.8-10.4-7.68-20.9-12.6-34-11-12.7 2.68-22.3 10.4-32.1 18.6-10.4 8.67-21.3 16.7-32.3 24.6-1.91 1.37-3.82 2.74-5.73 4.12-7.75 5.59-15.6 11-23.6 16.2-1.85 1.21-3.69 2.42-5.53 3.63-11 7.24-22.4 13.8-34 20.1-7.23 3.9-7.23 3.9-14.4 7.94-13.4 7.6-27.5 13.6-41.7 19.5-1.13 0.477-2.27 0.953-3.44 1.44-2.23 0.938-4.47 1.87-6.71 2.8-20.4 8.53-36.6 19.2-48.7 38.2-1.7 2.64-3.51 5.08-5.46 7.54-2.81 3.53-5.32 7.17-7.79 10.9-4.19 6.26-8.72 12.3-13.4 18.2-4.17 5.34-8.02 10.8-11.6 16.5-3.95 6.29-8.35 12.3-12.8 18.2-3.72 4.93-7.32 9.94-10.9 15-4.59 6.52-9.21 13-13.9 19.4l-2.31 3.2c-0.791 1.08-1.58 2.16-2.38 3.24-0.705 0.968-1.41 1.94-2.14 2.93-3.13 3.78-6.16 6.97-11.2 7.63-7.46 0.65-13.8 0.577-20-4-4.34-4.34-5.67-8.63-6.5-14.6 0.337-9.86 7.73-18.4 13.6-25.7 3.37-4.22 6.57-8.57 9.77-12.9 0.597-0.812 1.19-1.62 1.81-2.46 4.33-5.91 8.57-11.9 12.8-17.9 3.74-5.33 7.59-10.6 11.5-15.8 4.76-6.4 9.35-12.9 13.8-19.5 4.41-6.52 8.99-12.8 13.8-19 2.59-3.36 5.07-6.78 7.53-10.2 0.42-0.59 0.84-1.18 1.27-1.79 1.87-2.63 3.72-5.27 5.55-7.92 17.5-25 40.9-38.6 69-49 9.29-3.5 18.2-7.72 27.1-12.1 1.36-0.665 2.72-1.33 4.07-2 3.3-1.62 6.58-3.28 9.85-4.95 1.42-0.726 2.85-1.45 4.27-2.17 13.1-6.61 25.5-14 37.8-21.9 0.745-0.471 1.49-0.941 2.26-1.43 20.4-12.9 40.3-26.8 58.9-42.2 21.8-18 43.5-33.7 73.2-32.7 25.7 2.74 47.2 13.9 64 33.9 11.7 14.6 19.3 32 22.2 50.5 0.375 2.15 0.375 2.15 2.49 3.93 4.61-0.203 6.91-2.31 10.2-5.38 0.86-0.791 1.72-1.58 2.61-2.4 2.34-2.22 2.34-2.22 4.21-5.23h2c0.253-0.592 0.505-1.18 0.766-1.79 1.38-2.47 2.8-3.74 4.98-5.52 3.34-2.82 6.12-5.77 8.89-9.14 1.36-1.55 1.36-1.55 3.8-3.48 2.34-1.88 4.06-3.73 6-6 2.93-3.43 6.09-6.17 9.56-9.06 1.19-1.32 2.35-2.65 3.5-4 2.9-3.41 6.05-6.13 9.5-9 1.83-1.99 3.59-4.03 5.35-6.09 2.1-2.43 4.35-4.67 6.65-6.91 0.801-0.851 0.801-0.851 1.62-1.72 5.71-5.99 11.2-9.99 19.7-10.5 6.32 0.321 11.2 1.59 15.7 6.19 3.38 5.23 5.74 10.8 4.63 17.1-1.73 6.22-5.12 11.3-9.63 15.9-0.713 0.352-1.43 0.704-2.16 1.07-2.2 0.846-2.2 0.846-2.84 3.93h-2v2c-1.38 1.36-1.38 1.36-3.34 2.97-5.35 4.56-10.3 9.51-15.2 14.5-1.05 1.05-2.1 2.1-3.15 3.15-2.87 2.87-5.74 5.74-8.6 8.61-3.1 3.1-6.2 6.2-9.3 9.3-5.37 5.37-10.7 10.7-16.1 16.1-7.76 7.77-15.5 15.5-23.3 23.3-12.6 12.6-25.2 25.2-37.8 37.8-12.2 12.2-24.5 24.5-36.7 36.7-0.754 0.754-1.51 1.51-2.28 2.28-3.78 3.78-7.56 7.57-11.3 11.4-26.1 26.1-52.1 52.1-78.2 78.2-0.556 0.556-1.11 1.11-1.68 1.68-2.57 2.57-5.14 5.15-7.71 7.72-1.33 1.34-1.33 1.34-2.7 2.7-0.765 0.766-1.53 1.53-2.32 2.32-2.41 2.41-4.83 4.83-7.24 7.24-1.45 1.23-1.45 1.23-1.27 4.96 0.0699 5.38 1.66 9.66 3.65 14.6 3.62 9.46 6.81 19 9.81 28.7 0.215 0.688 0.429 1.38 0.65 2.09 2.75 8.85 5.44 17.7 7.63 26.7 1.08 4.22 1.08 4.22 4.53 6.95 4.71-0.24 7.02-1.47 10.4-4.62 6.21-5.2 13-8.51 20.6-11.4 0.939-0.358 1.88-0.716 2.85-1.09 8.56-2.96 16.2-3.37 25.2-3.1 2.55 0.0523 5.11 0.101 7.66 0.145 1.11 0.0307 2.22 0.0614 3.37 0.093 2.55-0.0438 4.54-0.144 6.91-1.05 1.15-2.25 1.15-2.25 2-5 11.4-24.2 30.8-43.1 55.1-54.2 1.57-0.716 3.12-1.47 4.66-2.24 12.1-5.11 29.6-4.71 41.9-0.609 2.11 0.931 4.2 1.93 6.25 3 1.57 0.785 1.57 0.785 3.16 1.59 6.43 3.58 11.7 7.9 17 12.9 0.683 0.645 1.37 1.29 2.07 1.96 9.16 8.71 18.1 17.7 27 26.6 1.76 1.77 3.53 3.54 5.29 5.3 3.21 3.22 6.42 6.44 9.63 9.66 0.678 0.678 1.36 1.36 2.05 2.06 1.13 1.14 2.26 2.29 3.37 3.46 3.07 3.21 4.96 4.2 9.47 4.39 2.23-0.0557 2.23-0.0557 4-1 0.688-1.32 1.35-2.66 2-4 12.9-19.4 32.2-35.2 55-41 11.1-2.01 21.3-1.31 31.6 3.56 4.59 2.18 9.27 4.27 14.4 3.44 5.4-2.98 9.46-7.19 13.8-11.6 0.672-0.672 1.34-1.34 2.04-2.04 2.7-2.72 5.08-5.2 7.21-8.4h2c0.33-0.99 0.66-1.98 1-3 0.701-0.557 1.4-1.11 2.12-1.69 3.24-2.6 5.69-5.51 8.32-8.7 0.512-0.531 1.02-1.06 1.55-1.61h2v-2c1.62-1.71 3.3-3.37 5-5 1.06-1.1 2.13-2.21 3.19-3.31 2.81-2.69 2.81-2.69 4.81-2.69v-2h2v-2h2c0.223-0.562 0.446-1.12 0.676-1.7 1.72-2.99 3.91-4.79 6.51-7.05 4.12-3.65 7.8-7.38 11.3-11.6 1.94-2.18 4.2-3.84 6.48-5.66 1.8-2.03 3.54-4.1 5.25-6.2 1.8-1.87 3.37-2.8 5.75-3.8v-2c3.28-3.52 6.85-6.69 10.4-9.88 3.69-3.33 7.03-6.67 10.2-10.5 2.11-2.39 4.52-4.34 6.99-6.34 1.55-1.23 1.55-1.23 2.42-3.26h2c0.33-0.99 0.66-1.98 1-3h2v-2c1.44-1.21 2.89-2.41 4.36-3.59 2.01-1.74 3.58-3.75 5.23-5.82 1.63-1.85 3.4-3.38 5.28-4.97 3.4-2.91 6.31-5.98 9.21-9.38 5.42-6.35 10.8-12.6 17.3-17.8 2.32-2.04 4.23-4.37 6.2-6.75 1.99-2.36 4.18-4.49 6.39-6.65 1.33-1.33 2.67-2.67 4-4 6-6 12-12 18-18 0.544-0.585 1.09-1.17 1.65-1.77 1.35-1.23 1.35-1.23 3.35-1.23 0.233-0.572 0.467-1.14 0.707-1.73 1.6-2.8 3.52-4.42 5.98-6.52 3.97-3.46 7.44-7.02 10.7-11.1 1.72-1.78 3.31-2.66 5.57-3.63v-2c1.62-1.71 3.29-3.37 5-5 0.557-0.598 1.11-1.2 1.69-1.81 1.31-1.19 1.31-1.19 3.31-1.19v-2c2.38-2.63 2.38-2.63 5-5h2c0.247-0.619 0.495-1.24 0.75-1.88 1.46-2.48 2.63-3.08 5.25-4.12v-2c2.38-2.63 2.38-2.63 5-5h2c0.33-0.99 0.66-1.98 1-3h2v-2c1.68-1.62 1.68-1.62 3.88-3.44 2.59-2.15 4.24-3.73 6.12-6.56h2c0.33-0.99 0.66-1.98 1-3 0.701-0.557 1.4-1.11 2.12-1.69 3.8-3.06 6.73-6.6 9.88-10.3 0.828-0.94 1.66-1.88 2.51-2.85 7.22-8.25 13.5-17 19.5-26.2 0.416-0.637 0.831-1.27 1.26-1.93 11.7-18.1 21.5-41.1 18.3-63-2.46-11.3-7.41-22.7-16.6-30-0.628-0.53-1.26-1.06-1.9-1.61-11.4-9.18-24.7-11.6-39.1-10.4-22.3 3.41-41.2 14.6-59 28-0.797 0.594-1.59 1.19-2.41 1.8-2.23 1.7-4.41 3.44-6.59 5.2-0.871 0.7-1.74 1.4-2.64 2.12-10.1 8.34-19.3 17.5-28.5 26.8-1.72 1.72-3.44 3.44-5.15 5.16-4.49 4.49-8.97 9-13.4 13.5-4.57 4.59-9.14 9.17-13.7 13.7-7.37 7.39-14.7 14.8-22.1 22.2-3.47 3.49-6.95 6.97-10.4 10.4-1.15 1.15-1.15 1.15-2.32 2.32-56.9 56.9-114 114-171 171-1.12 1.13-1.12 1.13-2.27 2.27-2.36 2.35-4.72 4.7-7.08 7.05-2.25 2.24-4.5 4.48-6.75 6.72-1.18 1.17-2.36 2.35-3.54 3.52-5.82 5.78-11.6 11.5-16.9 17.8-2.24 2.58-4.64 4.96-7.07 7.36l-2.73 2.7c-0.874 0.862-1.75 1.72-2.65 2.61-2.37 2.35-4.72 4.7-6.99 7.13-5.15 5.45-9.68 8.83-17.4 9.37-5.35-0.219-9.49-2.15-13.6-5.5-4.57-5.59-6.5-11-6.4-18.2 1.22-8.35 8.03-15.6 14.4-20.8h2v-2h2c0.33-0.99 0.66-1.98 1-3h2c0.268-0.639 0.536-1.28 0.812-1.94 1.19-2.06 1.19-2.06 4.19-3.06v-2c1.38-1.62 1.38-1.62 3-3h2v-2c1.5-1.44 1.5-1.44 3.44-3 2.71-2.15 2.71-2.15 4.56-5h2v-2c1.38-1.62 1.38-1.62 3-3h2c0.33-0.99 0.66-1.98 1-3h2v-2h2c0.268-0.639 0.536-1.28 0.812-1.94 1.19-2.06 1.19-2.06 4.19-3.06 0.33-0.99 0.66-1.98 1-3h2v-2h2c0.252-0.576 0.503-1.15 0.763-1.75 1.4-2.55 2.98-4.25 5.03-6.3 0.791-0.796 1.58-1.59 2.4-2.41 0.869-0.865 1.74-1.73 2.63-2.62 0.914-0.917 1.83-1.83 2.77-2.78 2.5-2.51 5.01-5.02 7.52-7.52 2.63-2.62 5.25-5.25 7.87-7.87 4.4-4.41 8.81-8.81 13.2-13.2 5.1-5.09 10.2-10.2 15.3-15.3 4.37-4.38 8.74-8.75 13.1-13.1 2.61-2.61 5.23-5.22 7.84-7.84 2.91-2.91 5.82-5.82 8.73-8.72 0.869-0.873 1.74-1.75 2.63-2.64 0.791-0.785 1.58-1.57 2.4-2.38 0.689-0.688 1.38-1.38 2.09-2.08 1.71-1.46 1.71-1.46 3.71-1.46 0.248-0.574 0.497-1.15 0.753-1.74 1.44-2.61 3.09-4.35 5.2-6.45 1.24-1.24 1.24-1.24 2.5-2.51 0.908-0.899 1.82-1.8 2.75-2.72 0.965-0.963 1.93-1.93 2.89-2.89 2.08-2.07 4.15-4.14 6.24-6.21 3.3-3.27 6.59-6.55 9.87-9.84 5.21-5.2 10.4-10.4 15.6-15.6 9.32-9.28 18.6-18.6 27.9-27.8 3.26-3.26 6.53-6.51 9.8-9.76 2.04-2.03 4.08-4.07 6.12-6.1 1.38-1.38 2.77-2.76 4.16-4.13 4.41-4.4 8.67-8.86 12.7-13.6 1.82-2.13 3.74-4.16 5.66-6.2 8.34-9.26 15.7-19.5 21.8-30.4 0.348-0.6 0.696-1.2 1.05-1.82 5.91-10.2 9.64-19.6 11.9-31.2 0.174-0.631 0.347-1.26 0.526-1.91 2.7-11.9 1.37-27-3.53-38.1-1.32-2.01-2.65-4.01-4-6v-2h-2c-2.62-2.37-2.62-2.37-5-5v-2c-0.874-0.42-0.874-0.42-1.77-0.848-2.1-1.08-4.02-2.28-5.98-3.59-13.9-8.79-30.8-7.84-46.4-4.71-9.97 2.67-19 7.68-27.9 12.8-2 1.15-4 2.3-6 3.45-0.866 0.502-1.73 1-2.62 1.52-2.1 1.18-4.21 2.29-6.38 3.34v2c-1.62 1.19-1.62 1.19-3.88 2.56-5.58 3.59-10.3 7.94-15.1 12.4-1.22 1.07-2.45 2.13-3.69 3.19-11.3 9.92-22 20.4-32.6 31.1-0.594 0.598-1.19 1.2-1.8 1.81-5.6 5.64-11.2 11.3-16.8 16.9-3.08 3.12-6.18 6.24-9.27 9.35-1.17 1.18-2.33 2.35-3.49 3.53-1.62 1.64-3.24 3.28-4.87 4.91-0.919 0.928-1.84 1.86-2.78 2.81-6.2 5.39-11.5 5.89-19.4 5.7-5.71-0.604-8.09-3.18-12-7.04-3.38-4.35-4.27-9.11-4.23-14.5 0.99-7.37 5.91-11.7 11-16.8 0.906-0.942 1.81-1.88 2.75-2.86 4.98-5.12 4.98-5.12 7.25-7.14h2c0.387-0.874 0.387-0.874 0.781-1.77 1.32-2.41 2.77-4.05 4.72-5.98 0.608-0.614 1.22-1.23 1.84-1.86 1.66-1.39 1.66-1.39 3.66-1.39 0.241-0.568 0.482-1.14 0.73-1.72 1.52-2.73 3.34-4.54 5.58-6.71 0.759-0.741 1.52-1.48 2.3-2.25 0.788-0.764 1.58-1.53 2.39-2.32 2.56-2.54 5.09-5.09 7.61-7.68 1.28-1.31 1.28-1.31 2.58-2.64 0.86-0.883 1.72-1.77 2.61-2.68 2.21-2.01 2.21-2.01 4.21-2.01 0.266-0.597 0.533-1.19 0.807-1.81 1.22-2.24 2.39-3.55 4.27-5.25 0.603-0.551 1.21-1.1 1.83-1.67l1.9-1.71c1.24-1.12 2.47-2.25 3.71-3.37 0.596-0.541 1.19-1.08 1.81-1.64 1.47-1.36 2.89-2.78 4.31-4.2 7.97-7.93 17.4-14.6 26.4-21.4 1.18-0.891 1.18-0.891 2.38-1.8 39.9-29.1 97.6-45.7 139-10.9zm122 291c-1.67 1.34-3.35 2.67-5.03 4-1 0.802-2.01 1.6-3.04 2.43-0.895 0.713-1.79 1.43-2.71 2.16-0.632 0.587-1.26 1.17-1.91 1.78v2c-0.53 0.205-1.06 0.41-1.61 0.622-3.4 1.96-5.95 4.67-8.69 7.43-0.629 0.627-1.26 1.25-1.91 1.9-2.11 2.11-4.21 4.22-6.31 6.33-1.51 1.51-3.02 3.02-4.53 4.53-4.1 4.1-8.2 8.21-12.3 12.3-4.29 4.3-8.58 8.59-12.9 12.9-8.13 8.14-16.3 16.3-24.4 24.4-9.23 9.25-18.5 18.5-27.7 27.7-15.8 15.8-31.6 31.6-47.4 47.4-0.667 0.668-1.33 1.34-2.02 2.02-1.22 1.23-2.45 2.45-3.67 3.68-1.06 1.07-2.13 2.13-3.19 3.2-1.41 1.41-2.82 2.83-4.23 4.25-2.75 2.73-5.69 5.19-8.66 7.67-0.519 0.512-1.04 1.02-1.57 1.55v2h-2c-1.63 1.65-1.63 1.65-3.31 3.75-2.69 3.18-5.44 5.65-8.69 8.25-1.05 1.17-2.08 2.37-3.1 3.57-4.05 4.68-8.42 8.97-12.9 13.3-1.71 1.67-3.41 3.35-5.11 5.02-2.66 2.61-5.32 5.21-8 7.81-2.6 2.52-5.18 5.06-7.76 7.61-1.21 1.15-1.21 1.15-2.44 2.33-4.61 4.44-4.61 4.44-6.83 10.3 0.128 3.95 1.04 5.08 3.79 7.86 1.25 1.28 1.25 1.28 2.52 2.58 5.35 5.12 10.8 10.1 16.3 15 9.51 8.49 9.51 8.49 12.5 12.3 0.639 0.784 1.28 1.57 1.94 2.38h2v2h2c0.262 0.579 0.523 1.16 0.793 1.75 2.59 4.82 6.73 8.77 10.6 12.6 8.08 8.08 15.4 16.9 22.2 26 0.438 0.584 0.877 1.17 1.33 1.77 0.853 1.14 1.7 2.29 2.54 3.44 2.51 3.34 4.8 5.58 8.59 7.38 5.01 0.109 7.68-1.95 11.2-5.19 2.47-2.49 4.77-5.1 7.02-7.79 2.15-2.46 4.45-4.73 6.77-7.03 1.79-1.77 3.58-3.54 5.38-5.31 0.895-0.883 1.79-1.77 2.71-2.68 2.1-2.12 4.06-4.33 6-6.6 4.25-4.88 8.8-9.43 13.4-14 1.33-1.33 1.33-1.33 2.69-2.69 2.34-2.34 4.68-4.67 7.03-7 2.38-2.37 4.76-4.74 7.13-7.11 3.48-3.47 6.97-6.95 10.5-10.4 4.68-4.67 9.36-9.34 14-14 1.8-1.81 3.6-3.61 5.39-5.42 0.915-0.923 1.83-1.85 2.77-2.8 0.873-0.877 1.75-1.75 2.65-2.66 1.19-1.2 1.19-1.2 2.41-2.43 1.98-1.87 1.98-1.87 3.98-2.87v-2c0.577-0.227 1.15-0.454 1.75-0.688 2.82-1.64 4.26-3.75 6.25-6.31 0.99-0.66 1.98-1.32 3-2v-2c1.32-0.66 2.64-1.32 4-2v-2h2c1.21-1.44 2.41-2.89 3.58-4.36 2.19-2.53 4.85-4.5 7.42-6.64 0.919-1.04 1.82-2.11 2.69-3.19 2.31-2.81 2.31-2.81 5.31-4.81v-2c0.99-0.33 1.98-0.66 3-1 1.64-1.66 1.64-1.66 3.25-3.69 2.28-2.69 4.52-5.08 7.25-7.31 3.34-2.75 6.08-5.84 8.89-9.13 2.09-2.42 4.33-4.64 6.61-6.87 0.63-0.641 1.26-1.28 1.91-1.94 5.57-5.65 5.57-5.65 8.65-8.06 2.13-1.75 3.7-3.4 5.47-5.5 4.41-5.09 9.17-9.79 14-14.5 0.955-0.948 1.91-1.9 2.86-2.85 4.01-3.99 8.03-7.97 12-11.9 2.48-2.45 4.95-4.9 7.42-7.36 1.37-1.36 2.75-2.72 4.13-4.08 5.95-5.93 11.3-12.2 16.5-18.7 0.496-0.615 0.992-1.23 1.5-1.86 19.1-23.8 32.4-50.1 30.3-81.1-1.03-8.39-4.18-15.9-8.8-23-2.04-1.15-2.04-1.15-4-2-1.08-1.95-1.08-1.95-2-4-8.55-8.93-21.7-13.7-34-14.3-29 0.858-53.4 16.3-75.3 33.9z" fill="#000102"></path>
<path transform="translate(300 558)" d="m0 0c5.27 2.68 8.49 7.11 10.6 12.5 2.36 8.2-0.881 14.2-4.61 21.4-2.34 4.15-4.91 7.48-8.14 11-4.67 5.48-8.6 11.6-12.7 17.5-1.84 2.62-3.75 5.19-5.66 7.75-19.2 26.5-31.2 57.7-39 89.3-0.812 3.26-1.65 6.5-2.5 9.75-13.4 52.1-17.9 105-17.2 159 0.0189 1.79 0.0189 1.79 0.0381 3.62 0.611 44.6 6.84 89.8 17.2 133 1.45 6.1 2.84 12.2 4.2 18.3 0.271 1.16 0.543 2.31 0.823 3.51 2.24 10.1 2.21 17.4-3.26 26.4-2.02 2.5-4.25 4.72-6.56 6.95-0.626 0.621-1.25 1.24-1.9 1.88-1.98 1.96-3.98 3.91-5.98 5.86-1.34 1.32-2.67 2.64-4.01 3.96-2.46 2.42-4.92 4.84-7.39 7.25-1.99 1.94-3.96 3.9-5.92 5.86-3.31 3.3-6.83 6.35-10.3 9.45-2.15 1.99-4.06 4.09-5.96 6.32-4.48 5.15-9.29 9.94-14.1 14.8-1.01 1.01-2.02 2.02-3.02 3.02-2.71 2.71-5.43 5.43-8.15 8.14-2.85 2.85-5.71 5.7-8.56 8.55-5.4 5.39-10.8 10.8-16.2 16.2-6.13 6.12-12.3 12.2-18.4 18.4-10.5 10.5-21 20.9-31.4 31.4-2.36 2.36-4.72 4.71-7.08 7.07-0.548 0.547-1.1 1.09-1.66 1.66-1.7 1.7-3.4 3.41-5.07 5.14-1.39 1.44-2.83 2.82-4.27 4.2h-2v2h-2c-0.255 0.581-0.51 1.16-0.773 1.76-2.25 4.1-5.85 7.05-9.23 10.2-1 0.957-1 0.957-2.02 1.93-5.76 5.29-11 9.21-19 9.5-5.95-0.274-10.2-1.95-14.8-5.81-3.59-4.31-4.48-8.01-4.5-13.6-0.0168-0.999-0.0335-2-0.0508-3.03 0.776-6.48 4.33-10.4 8.93-14.7 2.77-2.65 5.3-5.1 7.44-8.31h2v-2c1.5-1.44 1.5-1.44 3.44-3 2.71-2.15 2.71-2.15 4.56-5h2c0.346-0.853 0.346-0.853 0.699-1.72 1.63-2.86 3.63-4.56 6.11-6.71 5.41-4.76 10.3-9.6 14.9-15.2 0.44-0.447 0.879-0.895 1.33-1.36h2c0.33-0.99 0.66-1.98 1-3 1.71-1.65 1.71-1.65 3.81-3.38 3.15-2.65 5.64-5.39 8.19-8.62h2c0.33-0.99 0.66-1.98 1-3 1.98-1.69 3.98-3.36 6-5 0.33-0.66 0.66-1.32 1-2h2l0.73-1.76c1.51-2.67 3.24-4.15 5.58-6.12 2.71-2.33 5.21-4.58 7.44-7.38 2.25-2.75 2.25-2.75 4.62-4.62 2.87-2.32 5.07-4.85 7.47-7.64 2.69-3.1 5.45-6.14 8.22-9.17 0.494-0.546 0.989-1.09 1.5-1.66 2.45-2.67 4.93-5.13 7.75-7.43 2.72-1.95 2.72-1.95 3.69-4.23h2c0.253-0.592 0.505-1.18 0.766-1.79 1.38-2.47 2.8-3.74 4.98-5.52 3.31-2.79 6.06-5.71 8.8-9.05 1.48-1.67 3.03-3.05 4.76-4.45 2.72-1.91 2.72-1.91 3.69-4.19h2c0.229-0.568 0.459-1.14 0.695-1.72 1.64-2.87 3.67-4.57 6.18-6.71 2.73-2.34 5.09-4.52 7.32-7.35 0.596-0.731 1.19-1.46 1.8-2.21h2c0.33-0.99 0.66-1.98 1-3 1.64-1.69 3.31-3.35 5-5 3.99-4.32 3.44-8.32 3.31-14-0.433-7.09-2.07-14-3.62-20.9-0.47-2.16-0.935-4.31-1.4-6.47-0.307-1.42-0.616-2.84-0.927-4.27-1.39-6.37-2.58-12.8-3.74-19.2-0.554-3.19-0.554-3.19-1.62-6.19-0.326-2.46-0.613-4.91-0.867-7.38-0.0793-0.748-0.159-1.5-0.24-2.27-0.933-8.89-1.79-17.8-2.64-26.7-0.238-2.48-0.485-4.96-0.735-7.44-5-50.3-4.07-102 1.22-152 0.23-2.2 0.449-4.4 0.661-6.61 4.13-41.5 14.3-85.4 31.5-123 1.18-2.65 2.3-5.31 3.42-7.98 6.97-16.6 14.7-32 25.6-46.4 1.68-2.3 3.34-4.62 5-6.94 0.424-0.592 0.848-1.18 1.28-1.79 2.7-3.79 5.29-7.63 7.84-11.5 3.65-5.52 7.63-10.7 11.9-15.8 0.61-0.745 1.22-1.49 1.85-2.26 7.35-8.75 14.7-12.5 26.4-9.08z" fill="#000102"></path>
</svg><style>@media (prefers-color-scheme: light) { :root { filter: contrast(1) brightness(1); } }
</style></svg>